<svg width="52" height="52" viewBox="0 0 52 52" fill="none" xmlns="http://www.w3.org/2000/svg">
<path d="M24.717 33.8294C29.0411 33.8294 32.5464 30.324 32.5464 26C32.5464 21.676 29.0411 18.1707 24.717 18.1707C20.393 18.1707 16.8877 21.676 16.8877 26C16.8877 30.324 20.393 33.8294 24.717 33.8294Z" fill="#FF6465"/>
<path opacity="0.1" d="M19.274 28.3866C19.274 24.0624 22.7794 20.557 27.1037 20.557C28.6548 20.557 30.0994 21.0098 31.3158 21.788C29.9247 19.6136 27.4902 18.1707 24.7174 18.1707C20.3931 18.1707 16.8877 21.6761 16.8877 26.0003C16.8877 28.7733 18.3306 31.2076 20.505 32.5987C19.7271 31.3822 19.274 29.9379 19.274 28.3866Z" fill="black"/>
<path d="M12.6075 46.6752C10.0006 46.6752 7.8308 45.8833 6.33245 44.3851C3.75043 41.8031 3.3325 37.4408 5.15585 32.1017C6.90608 26.976 10.5336 21.4896 15.37 16.6531C22.3574 9.66592 30.5792 5.32544 36.827 5.32544C39.434 5.32544 41.6037 6.11732 43.102 7.61557C45.684 10.1975 46.102 14.5599 44.2786 19.8989C42.5283 25.0246 38.9009 30.511 34.0644 35.3475C27.0772 42.3347 18.8554 46.6752 12.6075 46.6752ZM36.827 7.11507C31.1242 7.11507 23.1985 11.3557 16.6357 17.9186C11.9887 22.5656 8.5132 27.8079 6.84951 32.68C5.25873 37.3384 5.52452 41.046 7.59792 43.1195C8.76975 44.2913 10.4552 44.8855 12.6073 44.8855C18.3102 44.8855 26.2358 40.6448 32.7986 34.0819C37.4456 29.4351 40.9212 24.1926 42.5849 19.3205C44.1757 14.662 43.9099 10.9545 41.8365 8.88094C40.6647 7.70931 38.9793 7.11507 36.827 7.11507Z" fill="#8CE0FF"/>
<path d="M36.827 46.6753C30.5791 46.6753 22.3573 42.3348 15.3699 35.3475C10.5335 30.511 6.906 25.0246 5.15578 19.8989C3.33253 14.5598 3.75046 10.1975 6.33238 7.61557C7.83073 6.11732 10.0004 5.32544 12.6074 5.32544C18.8553 5.32544 27.0771 9.66592 34.0643 16.6532C38.9008 21.4897 42.5282 26.9761 44.2786 32.1018C46.1018 37.4409 45.6839 41.8033 43.102 44.3852C41.6038 45.8834 39.4339 46.6753 36.827 46.6753ZM12.6075 7.11517C10.4552 7.11517 8.76978 7.70931 7.59815 8.88114C5.52455 10.9545 5.25886 14.6622 6.84974 19.3208C8.51333 24.1928 11.9887 29.4352 16.6359 34.0822C23.1989 40.645 31.1244 44.8857 36.8272 44.8857C38.9794 44.8857 40.6649 44.2916 41.8366 43.1197C43.9102 41.0463 44.1759 37.3387 42.585 32.6802C40.9214 27.8081 37.4459 22.5658 32.7988 17.9188C26.2361 11.3559 18.3104 7.11517 12.6075 7.11517Z" fill="#FFD782"/>
<path d="M37.6061 9.90036C39.6241 9.90036 41.26 8.26444 41.26 6.24644C41.26 4.22844 39.6241 2.59253 37.6061 2.59253C35.5881 2.59253 33.9521 4.22844 33.9521 6.24644C33.9521 8.26444 35.5881 9.90036 37.6061 9.90036Z" fill="#FFD782"/>
<path opacity="0.1" d="M35.1462 7.43984C35.1462 5.4219 36.782 3.78593 38.8001 3.78593C39.5034 3.78593 40.1599 3.98509 40.7174 4.32939C40.0737 3.28746 38.9218 2.59277 37.607 2.59277C35.5891 2.59277 33.9531 4.22864 33.9531 6.24669C33.9531 7.56141 34.6478 8.71354 35.6897 9.35704C35.3453 8.79987 35.1462 8.14327 35.1462 7.43984Z" fill="black"/>
<path d="M11.8287 49.4074C13.8467 49.4074 15.4826 47.7715 15.4826 45.7535C15.4826 43.7355 13.8467 42.0996 11.8287 42.0996C9.81072 42.0996 8.1748 43.7355 8.1748 45.7535C8.1748 47.7715 9.81072 49.4074 11.8287 49.4074Z" fill="#FFD782"/>
<path opacity="0.1" d="M9.36786 46.9469C9.36786 44.929 11.0037 43.293 13.0218 43.293C13.725 43.293 14.3816 43.4922 14.9391 43.8365C14.2954 42.7945 13.1434 42.0999 11.8287 42.0999C9.81077 42.0999 8.1748 43.7357 8.1748 45.7538C8.1748 47.0685 8.86949 48.2204 9.91142 48.8641C9.56712 48.3067 9.36786 47.6501 9.36786 46.9469Z" fill="black"/>
<path d="M25.9999 38.6881C19.1601 38.6881 12.7155 37.3736 7.85352 34.9868C2.78911 32.5007 0 29.1206 0 25.4691C0 21.8176 2.78911 18.4375 7.85363 15.9515C12.7155 13.5648 19.1602 12.2502 26 12.2502C32.8398 12.2502 39.2844 13.5648 44.1465 15.9515C49.2108 18.4376 52 21.8177 52 25.4691C52 29.1205 49.2108 32.5007 44.1464 34.9869C39.2844 37.3737 32.8397 38.6881 25.9999 38.6881ZM25.9999 14.0401C19.4281 14.0401 13.2637 15.2895 8.64226 17.5582C4.22327 19.7274 1.78973 22.5369 1.78973 25.4692C1.78973 28.4015 4.22327 31.211 8.64226 33.3803C13.2637 35.6489 19.4281 36.8984 25.9999 36.8984C32.5717 36.8984 38.7361 35.649 43.3575 33.3803C47.7765 31.211 50.2103 28.4014 50.2103 25.4692C50.2103 22.537 47.7767 19.7274 43.3575 17.5581C38.7362 15.2894 32.5717 14.0401 25.9999 14.0401Z" fill="#FF6465"/>
</svg>
