<svg width="53" height="52" viewBox="0 0 53 52" fill="none" xmlns="http://www.w3.org/2000/svg">
<path d="M30.2901 0H22.1237C20.8663 0 19.8472 1.01928 19.8472 2.27652V49.7234C19.8472 50.9806 20.8664 51.9999 22.1237 51.9999H30.2901C31.5473 51.9999 32.5666 50.9806 32.5666 49.7234V2.27652C32.5667 1.01928 31.5475 0 30.2901 0Z" fill="#7DD2F0"/>
<path opacity="0.1" d="M24.4964 49.7234V2.27652C24.4964 1.01928 25.5157 0 26.773 0H22.1237C20.8663 0 19.8472 1.01928 19.8472 2.27652V49.7234C19.8472 50.9806 20.8664 51.9999 22.1237 51.9999H26.773C25.5157 51.9999 24.4964 50.9806 24.4964 49.7234Z" fill="black"/>
<path d="M13.4555 25.9998H5.28921C4.03187 25.9998 3.0127 27.019 3.0127 28.2763V49.7232C3.0127 50.9804 4.03197 51.9997 5.28921 51.9997H13.4556C14.713 51.9997 15.7322 50.9804 15.7322 49.7232V28.2763C15.732 27.019 14.7129 25.9998 13.4555 25.9998Z" fill="#FF6465"/>
<path opacity="0.1" d="M7.66191 49.7234V28.2765C7.66191 27.0192 8.68119 26 9.93843 26H5.28921C4.03187 26 3.0127 27.0193 3.0127 28.2765V49.7234C3.0127 50.9807 4.03197 51.9999 5.28921 51.9999H9.93853C8.68119 51.9999 7.66191 50.9807 7.66191 49.7234Z" fill="black"/>
<path d="M47.1246 16.4604H38.9582C37.7009 16.4604 36.6816 17.4797 36.6816 18.737V49.7235C36.6816 50.9808 37.7009 52 38.9582 52H47.1246C48.3818 52 49.4011 50.9808 49.4011 49.7235V18.737C49.4011 17.4797 48.3818 16.4604 47.1246 16.4604Z" fill="#FFD782"/>
<path opacity="0.1" d="M41.3314 49.7233V18.7367C41.3314 17.4794 42.3507 16.4602 43.608 16.4602H38.9586C37.7014 16.4602 36.6821 17.4795 36.6821 18.7367V49.7233C36.6821 50.9805 37.7014 51.9998 38.9586 51.9998H43.608C42.3506 51.9998 41.3314 50.9805 41.3314 49.7233Z" fill="black"/>
</svg>
