<svg width="52" height="52" viewBox="0 0 52 52" fill="none" xmlns="http://www.w3.org/2000/svg">
<path d="M49.5662 42.5556L39.6024 27.6949C39.0779 26.9148 38.0212 26.7058 37.2444 27.2296L27.9045 34.2165C27.109 34.7139 26.8666 35.7623 27.3635 36.5584L36.5152 51.2011C36.8272 51.6995 37.3727 52 37.9569 52C37.9835 52 38.0101 51.9993 38.0377 51.9982C38.6518 51.9689 39.2017 51.6104 39.4772 51.0605L42.4062 45.2017H48.1543C48.7817 45.2017 49.3581 44.8559 49.6536 44.3021C49.9489 43.7485 49.9159 43.0768 49.5662 42.5556Z" fill="#FF3501"/>
<path d="M23.9102 34.4996L14.5438 27.532C13.7637 27.0093 12.7071 27.2183 12.1859 27.9978L2.43325 42.556C2.08357 43.0777 2.05036 43.7488 2.34591 44.3026C2.64125 44.8559 3.21782 45.2016 3.84517 45.2016H9.59329L12.5222 51.0605C12.7978 51.6104 13.3476 51.9689 13.9618 51.9982C13.9894 51.9993 14.016 51.9999 14.0425 51.9999C14.6267 51.9999 15.1723 51.6996 15.4843 51.2004L24.4513 36.8414C24.9481 36.0454 24.7057 34.9971 23.9102 34.4996Z" fill="#FF6243"/>
<path d="M25.9962 39.4717C23.5372 39.4717 22.5535 37.8295 21.2372 36.201C20.9805 35.8845 20.5633 35.7479 20.1683 35.8536C18.2049 36.3819 16.4057 37.1636 14.3958 35.7031C12.4067 34.2594 12.5759 32.3533 12.4682 30.2586C12.4471 29.8519 12.1882 29.4957 11.8088 29.3501C9.9055 28.6216 7.99471 28.1978 7.22578 25.8353C6.4665 23.4967 7.72059 22.0575 8.86774 20.2968C9.08904 19.956 9.08904 19.5156 8.86774 19.1749C7.75573 17.467 6.45817 16.0009 7.22578 13.6369C7.98709 11.2975 9.85228 10.8704 11.8088 10.1216C12.1883 9.97616 12.4472 9.61978 12.4682 9.21373C12.5723 7.18543 12.385 5.22812 14.3958 3.76867C16.3863 2.32293 18.1412 3.07277 20.1694 3.61816C20.5633 3.72388 20.9805 3.5882 21.236 3.27183C22.5254 1.67761 23.5134 0 25.9962 0C28.4552 0 29.4352 1.6383 30.7552 3.27071C31.013 3.5883 31.4346 3.72327 31.8242 3.61806C33.7908 3.08922 35.5873 2.30892 37.5967 3.76796C39.5863 5.21309 39.4168 7.12165 39.5242 9.21302C39.5453 9.61907 39.8052 9.97585 40.1848 10.1215C42.0815 10.8476 43.9995 11.2738 44.7667 13.6368C45.5114 15.9307 44.3392 17.3105 43.2164 19.0369C42.9387 19.4619 42.9387 20.0095 43.2153 20.4333C44.2248 21.9854 45.5323 23.4765 44.7666 25.8352C44.0072 28.1741 42.1373 28.6026 40.1847 29.35C39.8051 29.4954 39.545 29.8524 39.5241 30.2601C39.4199 32.2884 39.6067 34.2435 37.5966 35.7034C35.6122 37.1451 33.861 36.4004 31.8229 35.8533C31.4379 35.7471 31.0119 35.8827 30.7563 36.2003C29.4799 37.7782 28.4833 39.4717 25.9962 39.4717Z" fill="#EFBE44"/>
<path d="M44.7666 13.6369C43.9994 11.2738 42.0814 10.8476 40.1848 10.1216C39.8052 9.97616 39.5451 9.61917 39.5242 9.21312C39.4167 7.12185 39.5862 5.21329 37.5966 3.76806C35.5872 2.30902 33.7909 3.08922 31.8241 3.61816C31.4347 3.72327 31.0131 3.5882 30.7552 3.27081C29.4352 1.6383 28.4552 0 25.9962 0H25.9961V39.4717H25.9962C28.4833 39.4717 29.4799 37.7782 30.7563 36.2004C31.012 35.8828 31.438 35.7473 31.8229 35.8534C33.8611 36.4005 35.6124 37.1452 37.5965 35.7035C39.6068 34.2435 39.4198 32.2883 39.5241 30.2602C39.5452 29.8524 39.8051 29.4956 40.1847 29.3501C42.1374 28.6026 44.0074 28.1742 44.7665 25.8353C45.5323 23.4766 44.2248 21.9855 43.2153 20.4334C42.9387 20.0097 42.9387 19.462 43.2164 19.037C44.3392 17.3107 45.5114 15.9307 44.7666 13.6369Z" fill="#E4A738"/>
<path d="M25.9962 29.9334C20.373 29.9334 15.7988 25.3586 15.7988 19.736C15.7988 14.1134 20.373 9.53857 25.9962 9.53857C31.6194 9.53857 36.1936 14.1133 36.1936 19.7359C36.1936 25.3585 31.6194 29.9334 25.9962 29.9334Z" fill="#ECEFF0"/>
<path d="M36.1935 19.7359C36.1935 14.1133 31.6193 9.53857 25.9961 9.53857V29.9334C31.6193 29.9334 36.1935 25.3586 36.1935 19.7359Z" fill="#DADFE4"/>
</svg>
