<svg width="52" height="52" viewBox="0 0 52 52" fill="none" xmlns="http://www.w3.org/2000/svg">
<g clip-path="url(#clip0_2142_1535)">
<path d="M15.8249 18.0869C15.5456 18.0869 15.2619 18.0185 15.0013 17.8727C14.1833 17.4168 13.8885 16.3846 14.3444 15.5666L21.5023 2.71122C21.9571 1.89211 22.9926 1.59626 23.8084 2.05431C24.6264 2.51022 24.9212 3.5424 24.4653 4.36039L17.3075 17.2158C16.9972 17.7733 16.4199 18.0869 15.8249 18.0869Z" fill="#6E6057"/>
<path d="M36.1748 18.087C35.5798 18.087 35.0025 17.7736 34.6922 17.2171L27.5839 4.46218C27.128 3.64419 27.4216 2.6109 28.2397 2.15498C29.0578 1.69907 30.091 1.99269 30.5469 2.81077L37.6552 15.5657C38.1111 16.3837 37.8175 17.417 36.9994 17.8729C36.7378 18.0186 36.454 18.087 36.1748 18.087Z" fill="#615349"/>
<path d="M46.3481 52.0001H5.65239C2.84734 52.0001 0.56543 49.7182 0.56543 46.9132V19.7828C0.56543 16.9777 2.84734 14.6958 5.65239 14.6958H46.3481C49.1531 14.6958 51.435 16.9777 51.435 19.7828V46.9132C51.435 49.7182 49.1531 52.0001 46.3481 52.0001Z" fill="#95673F"/>
<path d="M46.3478 14.6958H26V52.0001H46.3478C49.1529 52.0001 51.4348 49.7182 51.4348 46.9132V19.7828C51.4348 16.9777 49.1529 14.6958 46.3478 14.6958Z" fill="#875334"/>
<path d="M42.9565 45.2174H9.04334C8.10724 45.2174 7.34766 44.4578 7.34766 43.5217V23.174C7.34766 22.2379 8.10724 21.4783 9.04334 21.4783H42.9564C43.8925 21.4783 44.6521 22.2379 44.6521 23.174V43.5218C44.6521 44.4579 43.8926 45.2174 42.9565 45.2174Z" fill="#DDEBFF"/>
<path d="M42.9566 21.4783H26V45.2174H42.9566C43.8927 45.2174 44.6523 44.4578 44.6523 43.5217V23.174C44.6522 22.2379 43.8927 21.4783 42.9566 21.4783Z" fill="#C2DAFD"/>
<path d="M23.7391 38.4348H15.8261C14.89 38.4348 14.1304 37.6752 14.1304 36.7391C14.1304 35.803 14.89 35.0435 15.8261 35.0435H23.7391C24.6752 35.0435 25.4348 35.803 25.4348 36.7391C25.4348 37.6752 24.6752 38.4348 23.7391 38.4348Z" fill="#A1AAB3"/>
<path d="M36.1739 31.6521H15.8261C14.89 31.6521 14.1304 30.8925 14.1304 29.9564C14.1304 29.0203 14.89 28.2607 15.8261 28.2607H36.1739C37.11 28.2607 37.8696 29.0203 37.8696 29.9564C37.8696 30.8926 37.11 31.6521 36.1739 31.6521Z" fill="#A1AAB3"/>
<path d="M36.1739 28.261H26V31.6523H36.1739C37.11 31.6523 37.8696 30.8927 37.8696 29.9566C37.8696 29.0205 37.11 28.261 36.1739 28.261Z" fill="#8A9199"/>
<path d="M26 10.1739C23.195 10.1739 20.9131 7.89202 20.9131 5.08696C20.9131 2.31309 23.1516 0 26 0C27.9551 0 29.7601 1.14156 30.598 2.90885C30.9226 3.59328 31.087 4.32626 31.087 5.08696C31.087 7.89202 28.8051 10.1739 26 10.1739Z" fill="#DBE9FD"/>
<path d="M31.087 5.08696C31.087 4.32626 30.9225 3.59328 30.5979 2.90885C29.76 1.14156 27.9551 0 26 0V10.1739C28.8051 10.1739 31.087 7.89202 31.087 5.08696Z" fill="#C5DCFD"/>
<path d="M25.9999 3.39136C25.0689 3.39136 24.3042 4.14444 24.3042 5.08705C24.3042 6.02203 25.0649 6.78273 25.9999 6.78273C26.9349 6.78273 27.6956 6.02203 27.6956 5.08705C27.6956 4.83314 27.5333 4.3629 27.5333 4.36179C27.254 3.77222 26.6522 3.39136 25.9999 3.39136Z" fill="#A1AAB3"/>
<path d="M27.6956 5.08694C27.6956 4.83304 27.5333 4.3628 27.5333 4.36169C27.2541 3.77212 26.6523 3.39136 26 3.39136V6.78263C26.9349 6.78263 27.6956 6.02193 27.6956 5.08694Z" fill="#8A9199"/>
</g>
<defs>
<clipPath id="clip0_2142_1535">
<rect width="52" height="52" fill="white"/>
</clipPath>
</defs>
</svg>
