<svg width="52" height="52" viewBox="0 0 52 52" fill="none" xmlns="http://www.w3.org/2000/svg">
<g clip-path="url(#clip0_2142_1517)">
<path d="M31.212 41.6001H20.812C19.8551 41.6001 19.0786 42.3759 19.0786 43.3335V45.0668C19.0786 48.8902 22.1887 52.0002 26.012 52.0002C29.8353 52.0002 32.9453 48.8902 32.9453 45.0668V43.3335C32.9452 42.3759 32.169 41.6001 31.212 41.6001Z" fill="#B1C6E4"/>
<path d="M31.2122 41.6001H26.0122V52.0001C29.8355 52.0001 32.9456 48.89 32.9456 45.0667V43.3334C32.9455 42.3759 32.1692 41.6001 31.2122 41.6001Z" fill="#9DB0CA"/>
<path d="M31.2123 45.0667H20.8123C17.9449 45.0667 15.6123 42.7342 15.6123 39.8667C15.6123 36.9993 17.9449 34.6667 20.8123 34.6667H31.2123C34.0797 34.6667 36.4123 36.9993 36.4123 39.8667C36.4123 42.7342 34.0798 45.0667 31.2123 45.0667Z" fill="#C5DCFD"/>
<path d="M31.2122 34.6667H26.0122V45.0667H31.2122C34.0796 45.0667 36.4122 42.7342 36.4122 39.8667C36.4122 36.9994 34.0797 34.6667 31.2122 34.6667Z" fill="#B1C6E4"/>
<path d="M41.6119 15.6C41.6119 18.616 40.9532 20.2454 39.867 22.9262C39.1506 24.6942 38.1684 27.1094 36.9897 30.9342H15.0225C13.9825 27.5716 13.0581 25.2026 12.3069 23.3076C10.8393 19.5867 9.94955 17.3449 10.6083 13.1272C11.6483 6.37873 17.3337 0.912945 24.1283 0.115578C24.7523 0.0347344 25.3879 0 26.0119 0C29.8137 0 33.523 1.39821 36.3772 3.94042C39.7051 6.89863 41.6119 11.1512 41.6119 15.6Z" fill="#F6DF5A"/>
<path d="M41.6122 15.6C41.6122 18.616 40.9536 20.2454 39.8674 22.9262C39.1509 24.6942 38.1687 27.1094 36.99 30.9342H26.0122V0C29.814 0 33.5234 1.39821 36.3776 3.94042C39.7055 6.89863 41.6122 11.1512 41.6122 15.6Z" fill="#F0CA45"/>
<path d="M29.4785 24.2666C28.5216 24.2666 27.7451 23.4908 27.7451 22.5333C27.7451 19.8341 28.7958 17.2971 30.7039 15.3895L31.7196 14.3745C32.3966 13.6974 33.4936 13.6974 34.1706 14.3745C34.8476 15.051 34.8476 16.149 34.1706 16.8255L33.1549 17.8411C31.9023 19.0943 31.2117 20.7605 31.2117 22.5332C31.2119 23.4908 30.4355 24.2666 29.4785 24.2666Z" fill="#E4A738"/>
<path d="M22.5452 24.2667C21.5882 24.2667 20.8118 23.4909 20.8118 22.5334C20.8118 20.7605 20.1211 19.0944 18.8686 17.8417L17.853 16.8255C17.176 16.149 17.176 15.051 17.853 14.3745C18.53 13.6974 19.627 13.6974 20.304 14.3745L21.3196 15.3901C23.2279 17.2972 24.2784 19.8341 24.2784 22.5333C24.2785 23.4909 23.5022 24.2667 22.5452 24.2667Z" fill="#EFBE44"/>
<path d="M29.4787 20.8H22.5454C21.5885 20.8 20.812 21.5759 20.812 22.5334V29.4668C20.812 30.4243 21.5885 31.2001 22.5454 31.2001H29.4787C30.4357 31.2001 31.2121 30.4243 31.2121 29.4668V22.5334C31.2121 21.5759 30.4358 20.8 29.4787 20.8ZM27.7454 27.7334H24.2787V24.2668H27.7454V27.7334Z" fill="#EFBE44"/>
<path d="M29.4788 20.8H26.0122V24.2667H27.7456V27.7333H26.0122V31.2H29.4788C30.4358 31.2 31.2122 30.4242 31.2122 29.4667V22.5333C31.2122 21.5759 30.4359 20.8 29.4788 20.8Z" fill="#E4A738"/>
<path d="M32.9455 38.1334H19.0789C16.2115 38.1334 13.8789 35.8008 13.8789 32.9334C13.8789 30.066 16.2115 27.7334 19.0789 27.7334H32.9455C35.813 27.7334 38.1455 30.066 38.1455 32.9334C38.1455 35.8007 35.8131 38.1334 32.9455 38.1334Z" fill="#DBE9FD"/>
<path d="M32.9456 27.7334H26.0122V38.1334H32.9456C35.813 38.1334 38.1456 35.8008 38.1456 32.9334C38.1456 30.066 35.8131 27.7334 32.9456 27.7334Z" fill="#C5DCFD"/>
</g>
<defs>
<clipPath id="clip0_2142_1517">
<rect width="52" height="52" fill="white"/>
</clipPath>
</defs>
</svg>
