<svg width="11" height="21" viewBox="0 0 11 21" fill="none" xmlns="http://www.w3.org/2000/svg">
<path d="M10.5858 0.00423329L7.94737 0C4.98322 0 3.06766 1.96531 3.06766 5.00714V7.31577H0.414863C0.18563 7.31577 0 7.50161 0 7.73084V11.0758C0 11.305 0.185842 11.4906 0.414863 11.4906H3.06766V19.931C3.06766 20.1602 3.25329 20.3458 3.48252 20.3458H6.94366C7.17289 20.3458 7.35852 20.16 7.35852 19.931V11.4906H10.4603C10.6895 11.4906 10.8751 11.305 10.8751 11.0758L10.8764 7.73084C10.8764 7.62077 10.8326 7.51537 10.7549 7.43747C10.6772 7.35958 10.5714 7.31577 10.4613 7.31577H7.35852V5.35871C7.35852 4.41808 7.58267 3.94056 8.808 3.94056L10.5853 3.93993C10.8144 3.93993 11 3.75408 11 3.52506V0.419096C11 0.190287 10.8146 0.00465662 10.5858 0.00423329Z" fill="#FF9D17"/>
</svg>
