<svg width="21" height="23" viewBox="0 0 21 23" fill="none" xmlns="http://www.w3.org/2000/svg">
<path d="M20.0054 5.70442C18.7032 5.70442 17.5017 5.27302 16.5369 4.54526C15.4303 3.71099 14.6353 2.48721 14.3545 1.07671C14.285 0.728204 14.2475 0.368559 14.244 0H10.5241V10.1646L10.5196 15.7322C10.5196 17.2206 9.55032 18.4828 8.20666 18.9266C7.81671 19.0554 7.39557 19.1165 6.95704 19.0924C6.39729 19.0617 5.87275 18.8928 5.41685 18.62C4.44665 18.0398 3.78886 16.9871 3.77103 15.783C3.74296 13.9009 5.26443 12.3665 7.14511 12.3665C7.51634 12.3665 7.87287 12.4272 8.20666 12.5372V9.75901V8.76029C7.85459 8.70815 7.49628 8.68096 7.13396 8.68096C5.07547 8.68096 3.15023 9.53662 1.77404 11.0782C0.733877 12.2431 0.109957 13.7294 0.0136948 15.2878C-0.112426 17.3352 0.636724 19.2814 2.08957 20.7173C2.30304 20.9281 2.5272 21.1237 2.76162 21.3042C4.00723 22.2628 5.53004 22.7825 7.13396 22.7825C7.49628 22.7825 7.85459 22.7557 8.20666 22.7036C9.70496 22.4816 11.0874 21.7958 12.1784 20.7173C13.5189 19.3923 14.2596 17.6333 14.2676 15.7611L14.2484 7.44694C14.888 7.94028 15.5872 8.3485 16.3377 8.66536C17.5049 9.15782 18.7425 9.40738 20.0161 9.40694V6.70581V5.70352C20.017 5.70442 20.0063 5.70442 20.0054 5.70442V5.70442Z" fill="#FF9D17"/>
</svg>
