<svg width="28" height="20" viewBox="0 0 28 20" fill="none" xmlns="http://www.w3.org/2000/svg">
<path d="M27.2988 3.05371C26.9775 1.85966 26.036 0.918451 24.8422 0.596919C22.661 0 13.9363 0 13.9363 0C13.9363 0 5.21172 0 3.03053 0.574165C1.85966 0.895485 0.895272 1.85987 0.573952 3.05371C0 5.23468 0 9.75783 0 9.75783C0 9.75783 0 14.3037 0.573952 16.4619C0.895485 17.6558 1.83669 18.5972 3.03074 18.9187C5.23468 19.5157 13.9365 19.5157 13.9365 19.5157C13.9365 19.5157 22.661 19.5157 24.8422 18.9415C26.0363 18.6202 26.9775 17.6788 27.299 16.4849C27.8729 14.3037 27.8729 9.78079 27.8729 9.78079C27.8729 9.78079 27.8959 5.23468 27.2988 3.05371Z" fill="#FF9D17"/>
<path d="M11.1582 13.9365L18.4133 9.75783L11.1582 5.57916V13.9365Z" fill="white"/>
</svg>
