<svg width="40" height="40" viewBox="0 0 40 40" fill="none" xmlns="http://www.w3.org/2000/svg">
<circle cx="20" cy="20" r="20" fill="white"/>
<path d="M33.3623 13.5382C33.0409 12.3441 32.0995 11.4029 30.9057 11.0814C28.7245 10.4845 19.9997 10.4845 19.9997 10.4845C19.9997 10.4845 11.2752 10.4845 9.094 11.0586C7.92313 11.38 6.95875 12.3443 6.63743 13.5382C6.06348 15.7192 6.06348 20.2423 6.06348 20.2423C6.06348 20.2423 6.06348 24.7882 6.63743 26.9464C6.95896 28.1403 7.90017 29.0817 9.09422 29.4032C11.2982 30.0001 19.9999 30.0001 19.9999 30.0001C19.9999 30.0001 28.7245 30.0001 30.9057 29.426C32.0997 29.1046 33.0409 28.1632 33.3625 26.9694C33.9364 24.7882 33.9364 20.2653 33.9364 20.2653C33.9364 20.2653 33.9594 15.7192 33.3623 13.5382Z" fill="#0D2F70"/>
<path d="M17.2219 24.421L24.4771 20.2423L17.2219 16.0637V24.421Z" fill="white"/>
</svg>
