<svg width="40" height="40" viewBox="0 0 40 40" fill="none" xmlns="http://www.w3.org/2000/svg">
<circle cx="20" cy="20" r="20" fill="#FF9D17"/>
<path d="M29.9893 14.3081C28.6871 14.3081 27.4856 13.8767 26.5208 13.1489C25.4142 12.3146 24.6192 11.0909 24.3384 9.68035C24.2689 9.33184 24.2314 8.9722 24.2279 8.60364H20.508V18.7682L20.5035 24.3358C20.5035 25.8243 19.5342 27.0864 18.1905 27.5303C17.8006 27.6591 17.3795 27.7201 16.9409 27.696C16.3812 27.6653 15.8566 27.4964 15.4007 27.2237C14.4305 26.6434 13.7727 25.5908 13.7549 24.3866C13.7268 22.5046 15.2483 20.9702 17.129 20.9702C17.5002 20.9702 17.8568 21.0308 18.1905 21.1409V18.3626V17.3639C17.8385 17.3118 17.4802 17.2846 17.1179 17.2846C15.0594 17.2846 13.1341 18.1403 11.7579 19.6818C10.7178 20.8467 10.0938 22.333 9.99758 23.8915C9.87146 25.9388 10.6206 27.885 12.0735 29.3209C12.2869 29.5317 12.5111 29.7274 12.7455 29.9078C13.9911 30.8665 15.5139 31.3861 17.1179 31.3861C17.4802 31.3861 17.8385 31.3594 18.1905 31.3072C19.6888 31.0853 21.0713 30.3994 22.1622 29.3209C23.5028 27.996 24.2435 26.237 24.2515 24.3648L24.2323 16.0506C24.8718 16.5439 25.5711 16.9521 26.3216 17.269C27.4887 17.7615 28.7263 18.011 30 18.0106V15.3094V14.3072C30.0009 14.3081 29.9902 14.3081 29.9893 14.3081Z" fill="#0D2F70"/>
</svg>
