<svg width="60" height="59" viewBox="0 0 60 59" fill="none" xmlns="http://www.w3.org/2000/svg">
<path d="M56.4378 15.7393V29.3032C56.4378 30.3253 55.6919 31.154 54.7803 31.154C53.8687 31.154 53.1228 30.3253 53.1228 29.3032V17.3692L56.4378 15.7393Z" fill="#0050C1"/>
<path d="M46.6033 20.5184V31.2093C46.6033 33.7232 44.9458 35.9332 42.5148 36.6238L36.3268 38.3918C31.9068 39.6625 27.2382 39.6625 22.8182 38.3918L16.6302 36.6238C14.2269 35.9332 12.5417 33.7232 12.5417 31.2093V20.6289L22.1552 25.2975C26.7686 27.5352 32.1831 27.5352 36.7965 25.2975L46.6033 20.5184Z" fill="#0050C1"/>
<path d="M58.0401 14.9658L56.4379 15.7393L53.1229 17.3416L46.6034 20.5184L36.8242 25.2699C32.2384 27.5075 26.7687 27.5075 22.1829 25.2699L12.5695 20.6289L0.966977 14.9658C-0.303771 14.3581 -0.303771 12.6177 0.966977 11.9823L22.1829 1.67822C26.7687 -0.559405 32.2384 -0.559405 36.8242 1.67822L58.0401 12.0099C59.3109 12.6177 59.3109 14.3581 58.0401 14.9658Z" fill="#008CF0"/>
<path d="M59.1452 33.585L57.9297 29.0545C57.7363 28.3363 57.0733 27.8114 56.3274 27.8114H53.1782C52.4323 27.8114 51.7693 28.3087 51.5759 29.0545L50.3604 33.6126C50.1947 34.3033 50.2776 34.9939 50.6367 35.6293L52.1284 38.2536C52.6533 39.1929 53.6478 39.7454 54.7528 39.7454C55.8578 39.7454 56.8799 39.1653 57.3772 38.2536L58.8689 35.6293C59.2281 34.9939 59.3386 34.3033 59.1452 33.585Z" fill="#FFAA2D"/>
<path d="M59.0069 46.8174V51.1545C59.0069 52.37 58.0124 53.3645 56.7969 53.3645H2.62437C1.18787 53.3645 0 52.5081 0 51.486V46.8174C0 45.7677 1.18787 44.9389 2.62437 44.9389H56.3825C57.819 44.9389 59.0069 45.7953 59.0069 46.8174Z" fill="#FFD44D"/>
<path d="M57.6808 47.7843H57.4321H8.39785C7.62435 47.7843 7.0166 48.392 7.0166 49.1655C7.0166 49.939 7.62435 50.5468 8.39785 50.5468H57.4045C57.9846 50.5468 58.5371 50.4086 58.9791 50.16V48.2263V48.0053V47.7843H57.6808Z" fill="#FFAA2D"/>
<path d="M34.4207 48.4473C34.4207 50.16 33.5643 51.6241 32.2383 52.5081C31.4648 53.033 30.4979 53.3645 29.5034 53.3645C28.4813 53.3645 27.5421 53.0606 26.7686 52.5081C25.4426 51.6241 24.5862 50.1324 24.5862 48.4473C24.5862 45.74 26.7962 43.53 29.5034 43.53C32.2107 43.53 34.4207 45.74 34.4207 48.4473Z" fill="#E72D0D"/>
<path d="M32.3212 59L29.5863 57.2873L26.7686 59V52.5358C27.5421 53.0606 28.5089 53.3921 29.5034 53.3921C30.5255 53.3921 31.4648 53.0883 32.2383 52.5358L32.3212 59Z" fill="#C31006"/>
</svg>
