<svg width="222" height="249" viewBox="0 0 222 249" fill="none" xmlns="http://www.w3.org/2000/svg">
<path d="M50.5715 82.3153L72.5054 114.988L83.2446 130.934C83.2446 130.934 106.22 147.466 142.212 109.781C178.205 72.0968 170.655 -5.48542 120.539 0.307219C113.77 1.08825 107.522 3.17099 101.794 6.16494C65.346 25.3652 50.5715 82.3153 50.5715 82.3153Z" fill="#FF9D17"/>
<path d="M79.4698 226.22C73.8073 226.61 68.8608 222.38 68.4703 216.717L68.1449 212.227C67.7544 206.564 71.9849 201.618 77.6474 201.227C83.3099 200.837 88.2564 205.067 88.6469 210.73L88.9723 215.22C89.4279 220.883 85.1323 225.829 79.4698 226.22Z" fill="#FF9D17"/>
<path d="M115.918 156.513L123.142 207.866C123.793 212.487 120.734 217.108 115.788 219.842C113.965 220.883 111.817 221.599 109.539 221.989C103.877 222.966 98.54 221.404 95.4809 218.345C93.984 216.848 93.0077 215.09 92.7473 213.008L85.5228 161.655C84.937 157.424 88.9724 153.194 94.5697 152.217L104.788 150.46C110.255 149.549 115.332 152.217 115.918 156.513Z" fill="#FFC359"/>
<path d="M89.6882 154.561C89.6882 154.561 92.6171 152.933 91.8361 147.792L99.9067 146.49L101.208 154.821L90.0137 156.578L89.6882 154.561Z" fill="#FFC359"/>
<path d="M110.385 151.371C110.385 151.371 107.066 150.72 106.285 145.579L98.2144 146.88L99.5161 155.211L110.711 153.454L110.385 151.371Z" fill="#FFC359"/>
<path d="M99.5813 58.8193L110.06 96.7643L115.137 115.314C115.137 115.314 131.669 138.289 177.749 113.947C223.83 89.67 241.338 13.6498 191.938 3.23608C185.234 1.80419 178.661 1.80419 172.282 2.84556C131.669 9.48431 99.5813 58.8193 99.5813 58.8193Z" fill="#FFF0FA"/>
<path d="M99.5813 58.8194L103.617 73.5287L109.995 96.6993C119.367 111.213 127.633 117.006 127.438 91.1019C127.438 89.5398 127.438 87.9778 127.503 86.4157C127.698 81.2089 128.219 76.3274 129.065 71.5762C137.071 26.2765 171.827 3.10592 172.282 2.84558C139.934 8.11753 112.989 40.5302 103.356 53.4823C100.883 56.8017 99.5813 58.8194 99.5813 58.8194Z" fill="#FFC261"/>
<path d="M99.5813 58.8194L103.617 73.5287L127.113 87.2618L127.568 86.4157C127.763 81.2089 128.284 76.3274 129.13 71.5762C125.616 65.9788 118.196 58.0383 103.356 53.4172C100.883 56.8017 99.5813 58.8194 99.5813 58.8194Z" fill="#FCAF3F"/>
<path d="M109.67 147.141L102.055 148.638L85.4578 151.827C85.1974 151.892 84.872 151.957 84.6117 151.957C69.2514 154.561 54.6722 146.88 47.6429 134.254C45.0395 129.568 43.4124 124.231 43.152 118.438C43.152 118.243 43.152 118.047 43.152 117.852L42.9568 111.669L42.6964 101.711C42.1757 81.339 56.4295 63.6357 76.4109 59.7305L83.7656 58.2987C103.747 54.4586 123.598 65.5883 130.692 84.6584L130.953 85.3743L136.29 99.8234C136.81 101.19 137.201 102.492 137.526 103.859C142.213 123.254 129.846 143.236 109.67 147.141Z" fill="#FFC261"/>
<path d="M109.67 147.141L102.055 148.638L85.4577 151.827C85.1973 151.892 84.8719 151.957 84.6115 151.957C69.2513 154.56 54.6721 146.88 47.6428 134.254C49.0747 134.644 50.7669 134.709 52.8497 134.449C57.5359 133.863 58.382 126.964 60.2695 123.58C61.7664 120.846 66.3224 119.089 69.3815 118.959C76.4107 118.633 78.4284 122.018 81.4223 122.994C93.268 126.769 104.463 124.621 116.243 119.479C129.065 113.947 131.473 95.6578 130.953 85.3743L136.29 99.8233C136.81 101.19 137.201 102.492 137.526 103.859C142.212 123.254 129.846 143.236 109.67 147.141Z" fill="#FFF0F5"/>
<path d="M68.5354 128.721L67.9497 128.852C65.932 129.242 63.9794 127.94 63.5889 125.923C63.2635 124.361 64.3049 122.864 65.8669 122.603L68.1449 122.148C69.707 121.822 71.204 122.864 71.4643 124.426C71.8548 126.378 70.5531 128.331 68.5354 128.721Z" fill="#E59896" stroke="#7F4244" stroke-width="1.9005" stroke-miterlimit="10"/>
<path d="M68.405 129.372C68.8606 131.78 68.9257 131.911 69.3813 134.384L68.405 129.372Z" fill="#E59896"/>
<path d="M67.8194 129.502C68.1449 131.195 68.4703 132.822 68.7957 134.514C68.8608 134.84 69.2513 135.035 69.5768 134.97C69.9673 134.84 70.0975 134.514 70.0324 134.189C69.7069 132.496 69.3815 130.869 69.0561 129.177C68.991 128.852 68.6005 128.656 68.2751 128.721C67.8845 128.787 67.7544 129.177 67.8194 129.502Z" fill="#7F4244"/>
<path d="M64.6953 138.289C65.0858 136.532 69.7069 131.65 75.6948 136.271" stroke="#7F4244" stroke-width="2.0119" stroke-miterlimit="10" stroke-linecap="round"/>
<path d="M61.9614 229.214C61.9614 227.782 63.133 226.61 64.5649 226.61H72.5704C74.0023 226.61 75.1738 227.782 75.1738 229.214C75.1738 230.646 74.0023 231.817 72.5704 231.817H64.5649C63.133 231.817 61.9614 230.646 61.9614 229.214Z" fill="#904042"/>
<path d="M125.746 246.006C125.746 244.574 126.917 243.403 128.349 243.403H136.355C137.787 243.403 138.958 244.574 138.958 246.006C138.958 247.438 137.787 248.609 136.355 248.609H128.349C126.917 248.609 125.746 247.438 125.746 246.006Z" fill="#904042"/>
<path d="M77.1917 249H43.0217C40.8738 249 39.3118 247.113 39.6372 245.03L40.9389 236.894C41.3945 234.03 43.8678 231.948 46.7315 231.948H75.0439C76.6059 231.948 77.9076 232.989 78.2331 234.486L80.5111 244.835C81.0317 246.917 79.4046 249 77.1917 249Z" fill="#2B2B2B"/>
<path d="M67.2337 246.722H46.2761C44.9744 246.722 43.9981 245.355 44.1934 243.858L44.9744 237.935C45.2347 235.853 46.7968 234.356 48.5541 234.356H65.9971C66.9734 234.356 67.7544 235.137 67.9497 236.178L69.3816 243.663C69.6419 245.29 68.6005 246.722 67.2337 246.722Z" fill="#808080"/>
<path d="M91.2504 161.329C91.2504 161.329 79.6651 193.417 49.27 170.246" stroke="#FFC359" stroke-width="18" stroke-miterlimit="10" stroke-linecap="round"/>
<path d="M107.847 163.542C107.847 163.673 107.912 163.803 107.912 163.933L115.788 219.842C113.965 220.883 111.817 221.599 109.539 221.989C103.877 222.966 98.5399 221.404 95.4809 218.345L88.2564 167.252C87.6706 163.152 91.5758 159.051 97.043 158.14C102.315 157.229 107.066 159.637 107.847 163.542Z" fill="#FFF0F5"/>
<path d="M127.633 240.799C122.166 242.426 116.439 239.367 114.811 233.9L109.084 214.765C107.457 209.298 110.516 203.57 115.983 201.943C121.45 200.316 127.178 203.375 128.805 208.842L134.532 227.977C136.225 233.444 133.101 239.172 127.633 240.799Z" fill="#FFB339"/>
<path d="M99.0606 218.475C113.727 218.475 125.616 206.586 125.616 191.92C125.616 177.254 113.727 165.365 99.0606 165.365C84.3947 165.365 72.5056 177.254 72.5056 191.92C72.5056 206.586 84.3947 218.475 99.0606 218.475Z" fill="#5495BD"/>
<path d="M88.061 167.708C88.061 167.708 79.7951 171.027 69.2512 159.051C58.7073 147.076 49.3349 169.01 49.3349 169.01L56.2991 172.199L54.5418 175.974C54.5418 175.974 53.7608 181.636 48.7492 180.53C47.0569 180.139 46.6664 183.979 49.5953 184.305C52.5892 184.63 68.6003 186.908 73.4818 199.274" fill="#5495BD"/>
<path d="M11.9325 147.634L9.21387 153.547L71.1894 182.039L73.908 176.125L11.9325 147.634Z" fill="#3D3D3D"/>
<path d="M12.4965 155.667L9.82795 156.058L0 147.141L0.520686 146.034L14.0585 152.217L12.4965 155.667Z" fill="#5495BD"/>
<path d="M15.6857 148.768L14.2539 146.555L1.04144 144.863L0.520752 146.034L14.0586 152.217L15.6857 148.768Z" fill="#5495BD"/>
<path d="M77.0616 188.6C81.1595 188.6 84.4814 185.278 84.4814 181.181C84.4814 177.083 81.1595 173.761 77.0616 173.761C72.9638 173.761 69.6418 177.083 69.6418 181.181C69.6418 185.278 72.9638 188.6 77.0616 188.6Z" fill="#301B11"/>
<path d="M24.62 153.484L21.9014 159.398L23.8529 160.295L26.5715 154.382L24.62 153.484Z" fill="#5495BD"/>
<path d="M29.5712 155.765L26.8525 161.678L28.8041 162.575L31.5227 156.662L29.5712 155.765Z" fill="#5495BD"/>
<path d="M37.4667 159.375L34.748 165.288L36.6996 166.185L39.4182 160.272L37.4667 159.375Z" fill="#5495BD"/>
<path d="M47.8458 164.129L45.1272 170.042L47.0787 170.94L49.7974 165.026L47.8458 164.129Z" fill="#5495BD"/>
<path d="M111.317 185.973L109.425 185.103L101.133 203.139L103.025 204.009L111.317 185.973Z" fill="#3D3D3D"/>
<path d="M14.8396 150.59L106.025 192.505" stroke="#C6C6C6" stroke-width="0.2768" stroke-miterlimit="10"/>
<path d="M14.0586 152.217L105.309 194.133" stroke="#C6C6C6" stroke-width="0.2768" stroke-miterlimit="10"/>
<path d="M13.3428 153.845L104.528 195.76" stroke="#C6C6C6" stroke-width="0.2768" stroke-miterlimit="10"/>
<path d="M110.385 159.312C110.385 159.312 115.853 191.204 98.4097 206.369" stroke="#FFB339" stroke-width="18" stroke-miterlimit="10" stroke-linecap="round"/>
<path d="M80.9016 119.349C80.9016 119.349 85.2624 112.515 95.4808 112.58" stroke="#7F4244" stroke-width="6" stroke-miterlimit="10" stroke-linecap="round"/>
<path d="M55.1276 123.58C55.1276 123.58 52.4591 121.757 48.0984 123.384" stroke="#7F4244" stroke-width="6" stroke-miterlimit="10" stroke-linecap="round"/>
<path d="M75.7598 110.498C75.7598 110.498 77.8425 104.379 89.8834 102.036" stroke="#FFF0F5" stroke-width="7" stroke-miterlimit="10" stroke-linecap="round"/>
<path d="M55.4531 113.426C55.4531 113.426 53.3053 111.734 46.5364 113.036" stroke="#FFF0F5" stroke-width="7" stroke-miterlimit="10" stroke-linecap="round"/>
</svg>
