<svg width="64" height="62" viewBox="0 0 64 62" fill="none" xmlns="http://www.w3.org/2000/svg">
<path d="M50.2296 32.3897C49.8893 32.7584 49.4638 33.0704 49.0384 33.3541C49.1518 33.7795 49.2086 34.2333 49.2086 34.6871C49.2086 34.7154 49.2086 34.7438 49.2086 34.7438C49.1802 36.559 48.2442 38.1473 46.7978 39.225C46.3723 39.537 45.9185 39.7923 45.408 39.9908C45.408 40.473 45.3229 40.9551 45.1527 41.3806C44.5855 42.8838 43.139 44.1034 41.2955 44.6706H22.0942C20.2223 44.1034 18.7758 42.8838 18.2369 41.3806C18.0667 40.9268 17.9817 40.473 17.9817 39.9908C17.4711 39.7923 17.0173 39.537 16.5919 39.225C15.1454 38.1756 14.2095 36.559 14.1811 34.7438C14.1811 34.7154 14.1811 34.6871 14.1811 34.6871C14.1811 34.2333 14.2378 33.7795 14.3513 33.3541C13.8975 33.0704 13.5004 32.7584 13.1601 32.3897C12.1674 31.3687 11.5718 30.0073 11.5718 28.5325C11.5718 26.1784 13.1317 24.1363 15.344 23.2287C15.0887 22.6331 14.9469 21.9808 14.9469 21.3001C14.9469 19.967 15.5141 18.7475 16.4501 17.7831C17.0741 17.1308 17.8966 16.6203 18.8042 16.2799C19.2296 16.1098 19.6834 15.9963 20.1656 15.9112C20.1656 15.7978 20.1656 15.656 20.1656 15.5425C20.1656 15.1738 20.1939 14.8051 20.279 14.4648C20.8179 11.9689 23.1436 10.0686 25.9515 10.0686C28.5041 10.0686 30.9716 11.7136 31.7374 13.8975C32.4748 11.7136 34.9423 10.0686 37.4949 10.0686C40.3028 10.0686 42.6285 11.9689 43.1674 14.4648C43.2525 14.8051 43.2808 15.1738 43.2808 15.5425C43.2808 15.656 43.2808 15.7978 43.2808 15.9112C43.763 15.9963 44.2168 16.1098 44.6422 16.2799C45.5498 16.6203 46.3723 17.1308 46.9963 17.7831C47.9323 18.7191 48.4995 19.967 48.4995 21.3001C48.4995 21.9808 48.3577 22.6331 48.1024 23.2287C50.3147 24.1363 51.8746 26.1784 51.8746 28.5325C51.8462 30.0073 51.2223 31.3687 50.2296 32.3897Z" fill="#FFD655"/>
<path d="M25.9231 56.2141L27.3696 62H36.0201L37.4666 56.2141H25.9231Z" fill="#DAD7E5"/>
<path d="M41.0971 44.6706V54.3138C41.0971 55.3632 40.2462 56.1857 39.2252 56.1857H24.2215C23.1721 56.1857 22.3496 55.3349 22.3496 54.3138V44.6706H41.0971Z" fill="#EDEBF2"/>
<path d="M21.2434 32.0778C21.0449 32.645 20.506 33.0137 19.9104 33.0137C19.7402 33.0137 19.5984 32.9853 19.4282 32.9286C18.5206 32.5883 17.7832 32.021 17.216 31.2836C16.5069 31.8509 15.9964 32.6734 15.7411 33.6944C15.571 34.3467 15.0037 34.7722 14.3514 34.7722C14.2946 34.7722 14.2379 34.7722 14.1812 34.7722C14.1812 34.7438 14.1812 34.7154 14.1812 34.7154C14.1812 34.2617 14.2379 33.8079 14.3514 33.3824C13.8976 33.0988 13.5005 32.7868 13.1602 32.4181C13.7274 30.7731 14.7768 29.4117 16.1949 28.5608C16.1949 28.4757 16.1949 28.3907 16.1949 28.3056C16.1949 27.3129 16.4785 26.3769 17.0458 25.5544C17.4712 24.9021 18.3788 24.7319 19.0312 25.1857C19.6835 25.6111 19.8537 26.4904 19.3999 27.1427C19.173 27.4831 19.0312 27.8801 19.0312 28.3056C19.0312 29.1848 19.57 29.9789 20.4209 30.2626C21.1583 30.5178 21.527 31.3403 21.2434 32.0778Z" fill="#FF9D17"/>
<path d="M28.2488 28.9863C29.6102 28.9863 30.8298 28.5041 31.709 27.7383C32.5882 28.5041 33.8078 28.9863 35.1692 28.9863C36.7291 28.9863 38.1756 28.3339 39.0832 27.2278C39.5937 26.6322 39.5086 25.7246 38.8846 25.2424C38.289 24.7319 37.3814 24.817 36.8993 25.441C36.5306 25.8948 35.8782 26.1784 35.1408 26.1784C34.0631 26.1784 33.1555 25.5261 33.1271 24.7603C33.1271 24.7319 33.1271 24.7319 33.1271 24.7035C33.1271 24.0229 32.6449 23.4272 31.9926 23.3138C31.9642 23.3138 31.9642 23.3138 31.9359 23.3138C31.8508 23.3138 31.7941 23.2854 31.709 23.2854C31.6239 23.2854 31.5672 23.2854 31.5104 23.3138C31.4821 23.3138 31.4821 23.3138 31.4537 23.3138C30.8014 23.4272 30.3192 24.0229 30.3192 24.7035C30.3192 24.7035 30.3192 24.7319 30.3192 24.7603C30.2909 25.5261 29.3549 26.1784 28.3055 26.1784C27.5964 26.1784 26.9441 25.8948 26.547 25.441C26.0365 24.8454 25.1573 24.7603 24.5617 25.2424C23.9661 25.753 23.881 26.6322 24.3631 27.2278C25.2424 28.3339 26.7172 28.9863 28.2488 28.9863Z" fill="#FF9D17"/>
<path d="M26.6605 19.1729C26.6889 19.1445 26.774 19.1445 26.8307 19.2013C26.8874 19.258 26.8874 19.3431 26.8591 19.3714C26.5187 20.0805 26.8023 20.9314 27.483 21.2717C27.6816 21.3852 27.9085 21.4135 28.107 21.4135C28.6175 21.4135 29.128 21.1299 29.3833 20.6194C29.9505 19.4565 29.7236 18.0951 28.8161 17.1875C27.8801 16.2516 26.4903 16.0531 25.3275 16.6487C24.6468 17.0174 24.3915 17.8682 24.7319 18.5773C25.1006 19.258 25.9515 19.5133 26.6605 19.1729Z" fill="#FF9D17"/>
<path d="M23.2571 15.8261C23.2571 16.6203 22.6331 17.2442 21.839 17.2442H21.3568C21.0165 17.2442 20.7045 17.2726 20.4208 17.3293C20.3358 17.3293 20.2507 17.3577 20.1656 17.3577C19.5416 17.3577 18.9744 16.9323 18.8042 16.3083C19.2296 16.1381 19.6834 16.0247 20.1656 15.9396C20.1656 15.8261 20.1656 15.6843 20.1656 15.5709C20.1656 15.2022 20.194 14.8334 20.279 14.4931C20.6477 14.4364 21.0165 14.4364 21.3852 14.4364H21.839C22.6331 14.408 23.2571 15.0603 23.2571 15.8261Z" fill="#FF9D17"/>
<path d="M49.0383 33.354C49.1518 33.7795 49.2085 34.2333 49.2085 34.6871C49.2085 34.7154 49.2085 34.7438 49.2085 34.7438C49.1518 34.7438 49.095 34.7438 49.0383 34.7438C48.4144 34.7438 47.8187 34.3184 47.6769 33.666C47.4217 32.6733 46.9112 31.8508 46.2021 31.2552C45.6348 31.9926 44.8974 32.5599 43.9898 32.9002C43.8197 32.957 43.6778 32.9853 43.5077 32.9853C42.9404 32.9853 42.3732 32.6166 42.1746 32.0494C41.9194 31.312 42.2881 30.4894 43.0255 30.2342C43.848 29.9222 44.3869 29.1281 44.3869 28.2772C44.3869 27.8518 44.2735 27.4547 44.0182 27.1143C43.5928 26.462 43.7629 25.5828 44.3869 25.1573C45.0392 24.7035 45.9185 24.8737 46.3439 25.526C46.8828 26.3485 47.1948 27.2845 47.1948 28.2772C47.1948 28.3623 47.1948 28.4474 47.1948 28.5324C48.6129 29.3833 49.6623 30.7447 50.2295 32.3897C49.8892 32.7584 49.4638 33.0704 49.0383 33.354Z" fill="#FF9D17"/>
<path d="M35.2828 21.4135C35.5097 21.4135 35.7083 21.3568 35.9068 21.2717C36.6159 20.9313 36.8995 20.0805 36.5308 19.3714C36.5024 19.3431 36.5024 19.258 36.5591 19.2012C36.6159 19.1445 36.7009 19.1445 36.7293 19.1729C37.41 19.5416 38.2892 19.258 38.6579 18.5773C39.0267 17.8966 38.743 17.0174 38.0623 16.6486C36.8995 16.0247 35.5097 16.2516 34.5738 17.1875C33.6662 18.0951 33.4393 19.4849 34.0065 20.6194C34.2618 21.1299 34.7723 21.4135 35.2828 21.4135Z" fill="#FF9D17"/>
<path d="M20.3359 37.6084C19.5134 38.3174 19.3999 39.4236 19.3999 39.9908C19.3999 40.6999 18.8894 41.2671 18.2371 41.3806C18.0669 40.9268 17.9818 40.473 17.9818 39.9908C17.4713 39.7923 17.0175 39.537 16.592 39.225C16.7622 37.6935 17.4145 36.3604 18.464 35.4529C19.0596 34.9423 19.9388 34.9991 20.4777 35.5947C21.0166 36.1903 20.9315 37.0979 20.3359 37.6084Z" fill="#FF9D17"/>
<path d="M27.313 34.1482C27.1996 34.2333 27.0294 34.3184 26.7741 34.3184C26.4054 34.3184 26.0651 34.0915 25.9233 33.7228C25.6396 32.9853 24.8455 32.6166 24.1081 32.9003C23.3707 33.1839 23.0019 33.978 23.2856 34.7154C23.5408 35.4245 24.023 36.0201 24.6186 36.4455C24.732 37.0128 24.9306 37.58 25.2426 38.0906C25.4978 38.516 25.98 38.7713 26.4621 38.7713C26.7174 38.7713 26.9727 38.7145 27.1996 38.5727C27.7385 38.2324 27.9653 37.6084 27.8235 37.0412C28.249 36.9277 28.6177 36.7292 28.9864 36.4739C29.6104 36.0201 29.7805 35.1409 29.2984 34.4885C28.8446 33.8362 27.9654 33.6944 27.313 34.1482Z" fill="#FF9D17"/>
<path d="M46.7978 39.225C46.3724 39.537 45.9186 39.7923 45.4081 39.9908C45.4081 40.473 45.323 40.9551 45.1528 41.3806C44.5005 41.2671 43.9899 40.6715 43.9899 39.9908C43.9899 39.3952 43.8765 38.2891 43.054 37.6084C42.4584 37.0979 42.4017 36.1903 42.9122 35.5947C43.4227 34.9991 44.3303 34.9423 44.9259 35.4529C45.9753 36.3888 46.6276 37.6935 46.7978 39.225Z" fill="#FF9D17"/>
<path d="M39.2817 32.9003C38.5443 32.6166 37.7218 33.0137 37.4665 33.7228C37.3247 34.0915 36.9843 34.3184 36.6156 34.3184C36.3604 34.3184 36.1902 34.2333 36.0768 34.1482C35.4528 33.6944 34.5452 33.8362 34.0914 34.4602C33.6376 35.0842 33.7794 35.9918 34.4034 36.4456C34.7721 36.7008 35.1408 36.8994 35.5662 37.0128C35.4244 37.6084 35.6513 38.2324 36.1902 38.5444C36.4171 38.6862 36.6724 38.7429 36.9276 38.7429C37.4098 38.7429 37.8636 38.516 38.1472 38.0622C38.4592 37.5517 38.6577 37.0128 38.7712 36.4172C39.3668 35.9918 39.8489 35.3962 40.1042 34.6871C40.3878 34.0064 40.0191 33.1839 39.2817 32.9003Z" fill="#FF9D17"/>
<path d="M44.614 16.3083C44.4438 16.9323 43.8766 17.3577 43.2526 17.3577C43.1675 17.3577 43.0824 17.3577 42.9974 17.3293C42.6854 17.2726 42.3734 17.2443 42.0614 17.2443H41.5792C40.7851 17.2443 40.1611 16.6203 40.1611 15.8261C40.1611 15.032 40.7851 14.408 41.5792 14.408H42.0614C42.4301 14.408 42.7988 14.4364 43.1675 14.4647C43.2526 14.8051 43.281 15.1738 43.281 15.5425C43.281 15.656 43.281 15.7978 43.281 15.9112C43.7064 16.0247 44.1886 16.1381 44.614 16.3083Z" fill="#FF9D17"/>
<path d="M11.0329 50.6551C10.6642 50.6551 10.2954 50.5133 10.0402 50.2296C9.47293 49.6624 9.47293 48.7832 10.0402 48.2159L12.1106 46.1455C12.6779 45.5782 13.5571 45.5782 14.1244 46.1455C14.6916 46.7127 14.6916 47.5919 14.1244 48.1592L12.0539 50.2296C11.7703 50.5133 11.4016 50.6551 11.0329 50.6551Z" fill="#FF9D17"/>
<path d="M4.36779 30.2342H1.41812C0.623971 30.2342 0 29.6103 0 28.8161C0 28.022 0.623971 27.398 1.41812 27.398H4.36779C5.16194 27.398 5.78591 28.022 5.78591 28.8161C5.78591 29.6103 5.16194 30.2342 4.36779 30.2342Z" fill="#FF9D17"/>
<path d="M13.1033 11.4867C12.7346 11.4867 12.3659 11.3449 12.1106 11.0613L10.0402 8.99085C9.47293 8.42361 9.47293 7.54438 10.0402 6.97713C10.6074 6.40989 11.4867 6.40989 12.0539 6.97713L14.1244 9.04758C14.6916 9.61483 14.6916 10.4941 14.1244 11.0613C13.8124 11.3449 13.472 11.4867 13.1033 11.4867Z" fill="#FF9D17"/>
<path d="M31.7091 5.58737C30.915 5.58737 30.291 4.9634 30.291 4.16926V1.41812C30.291 0.623971 30.915 0 31.7091 0C32.5033 0 33.1272 0.623971 33.1272 1.41812V4.16926C33.1272 4.93504 32.4749 5.58737 31.7091 5.58737Z" fill="#FF9D17"/>
<path d="M52.3567 50.6551C51.988 50.6551 51.6193 50.5133 51.364 50.2296L49.2936 48.1592C48.7264 47.5919 48.7264 46.7127 49.2936 46.1455C49.8608 45.5782 50.7401 45.5782 51.3073 46.1455L53.3778 48.2159C53.945 48.7832 53.945 49.6624 53.3778 50.2296C53.0941 50.5133 52.7254 50.6551 52.3567 50.6551Z" fill="#FF9D17"/>
<path d="M62.0001 30.2342H59.0504C58.2563 30.2342 57.6323 29.6103 57.6323 28.8161C57.6323 28.022 58.2563 27.398 59.0504 27.398H62.0001C62.7943 27.398 63.4182 28.022 63.4182 28.8161C63.4182 29.6103 62.7659 30.2342 62.0001 30.2342Z" fill="#FF9D17"/>
<path d="M50.3148 11.4867C49.9461 11.4867 49.5774 11.3449 49.3222 11.0613C48.7549 10.4941 48.7549 9.61483 49.3222 9.04758L51.3926 6.97713C51.9599 6.40989 52.8391 6.40989 53.4063 6.97713C53.9736 7.54438 53.9736 8.42361 53.4063 8.99085L51.3359 11.0613C51.0239 11.3449 50.6836 11.4867 50.3148 11.4867Z" fill="#FF9D17"/>
<path d="M41.0971 49.0384H22.3496V51.8747H41.0971V49.0384Z" fill="#DAD7E5"/>
</svg>
