<svg width="53" height="39" viewBox="0 0 53 39" fill="none" xmlns="http://www.w3.org/2000/svg">
<path d="M52.6001 0.940552V31.2344C52.6001 34.8795 49.7924 37.8597 46.3443 37.8597C42.8962 37.8597 40.0885 34.9042 40.0885 31.2344C40.0885 26.9243 43.906 23.8949 47.6004 24.757V11.6296L33.8327 13.994V31.8748C33.8327 35.5199 31.0249 38.5 27.5769 38.5C24.1288 38.5 21.321 35.5445 21.321 31.8748C21.321 27.5647 25.1386 24.5353 28.8329 25.3973V5.84175L52.6001 0.940552Z" fill="#81CC2E"/>
<path d="M23.784 15.9644L19.203 12.9596C17.3311 11.4818 15.0653 10.6937 13.7599 10.6937V30.668C13.7599 31.2837 13.6614 31.8748 13.4397 32.4413C12.4053 35.0027 10.9029 37.2439 8.73556 38.0567C3.56343 40.0024 -1.23925 35.2244 0.287756 29.8798C0.878856 27.8356 2.38123 26.284 4.17916 25.6436C6.02635 25.0033 7.82428 25.2249 8.76019 26.0131V2.19666H13.7599C14.7943 2.19666 16.3213 2.56609 17.1834 3.25571L20.3359 5.81714L22.1831 7.29489C23.8086 8.45246 23.8086 9.70855 23.8086 12.1961V15.9644H23.784Z" fill="#008CF0"/>
</svg>
