<svg width="280" height="310" viewBox="0 0 280 310" fill="none" xmlns="http://www.w3.org/2000/svg">
<g clip-path="url(#clip0_37_856)">
<path d="M143.669 220.965V283.902H133.237C133.237 283.902 135.612 310 117.338 310H114.82C95.4677 310 56.9065 310 56.9065 310L62.3022 296.879L92.3741 218.009C92.3741 218.009 95.036 211.521 106.619 203.879C107.914 203.014 108.849 201.86 109.424 200.419C109.784 199.553 109.928 198.688 109.928 197.751V192.849H133.813V197.895C133.813 198.76 133.957 199.626 134.245 200.419C134.604 201.428 135.18 202.293 135.971 203.086C138.849 205.97 143.669 212.17 143.669 220.965Z" fill="#FFC261"/>
<path d="M134.245 200.419H109.425C109.784 199.553 109.928 198.688 109.928 197.751V192.849H133.813V197.895C133.813 198.76 133.957 199.626 134.245 200.419Z" fill="#FCAF3F"/>
<path d="M9.64038 299.691C9.64038 299.691 13.5972 289.814 25.108 289.814C36.6188 289.814 81.367 289.814 81.367 289.814L77.3382 297.24L9.64038 299.691Z" fill="#FFC261"/>
<path d="M92.3022 310H18.849C13.4533 310 9.13672 306.54 9.13672 302.214C9.13672 300.051 10.2159 298.105 12.0144 296.735C13.741 295.365 16.1871 294.5 18.9209 294.5H61.2231C74.3885 294.428 86.4749 300.484 92.3022 310Z" fill="#FFC261"/>
<path d="M138.705 283.398H117.77V310H138.705V283.398Z" fill="#FCAF3F"/>
<path d="M62.3022 296.807C62.3022 296.807 70.4317 275.467 73.1656 268.402C75.8994 261.337 86.403 254.488 96.331 254.272C106.259 254.056 104.892 271.358 104.892 271.358L114.892 289.814V310H87.7699L62.3022 296.807Z" fill="#FCAF3F"/>
<path d="M106.835 302.43C106.835 304.521 105.971 306.395 104.604 307.765C103.237 309.135 101.367 310 99.2806 310H66.6188L67.626 308.991L60.2878 294.86H99.2087C103.453 294.86 106.835 298.249 106.835 302.43Z" fill="#F49E37"/>
<path d="M124.82 95.0186L98.9928 130.2L86.331 147.358C86.331 147.358 60.072 164.588 22.0864 121.044C-15.8993 77.5 -3.95681 -8.21863 51.295 0.648814C58.777 1.8744 65.6115 4.46974 71.7266 8.0744C111.151 31.0721 124.82 95.0186 124.82 95.0186Z" fill="#FFF0FA"/>
<path d="M124.82 94.9465L119.281 102.516L114.82 108.572L98.9928 130.056C83.5971 141.374 72.6619 144.042 83.1655 117.295C83.741 115.781 84.3166 114.34 84.8202 112.898C84.8921 112.754 84.964 112.537 84.964 112.393C86.8346 106.986 88.2015 101.651 89.2087 96.3884C89.2087 96.2442 89.2806 96.1721 89.2806 96.0279C98.777 46.1396 72.1583 8.57908 71.7986 8.07443C103.165 26.3861 118.201 70.7233 123.022 87.9535C123.022 88.0256 123.094 88.0977 123.094 88.1698C123.381 89.2512 123.669 90.2605 123.885 91.1256C123.957 91.2698 123.957 91.414 123.957 91.5582C124.532 93.721 124.82 94.9465 124.82 94.9465Z" fill="#FFC261"/>
<path d="M142.662 97.2535L146.043 140.798L147.698 162.065C147.698 162.065 160.863 190.614 216.115 173.816C271.367 157.019 306.403 77.9326 254.82 56.0884C247.842 53.1326 240.719 51.7628 233.525 51.5465C187.914 50.2488 142.662 97.2535 142.662 97.2535Z" fill="#FFF0FA"/>
<path d="M142.662 97.2535L143.957 114.123L146.043 140.798C153.165 158.605 161.007 166.607 166.259 138.347C166.619 136.616 166.906 134.886 167.338 133.228C168.633 127.605 170.216 122.342 172.158 117.44C190.36 69.714 233.094 51.8349 233.597 51.5465C197.266 50.4651 161.151 80.0954 147.914 92.207C144.532 95.307 142.662 97.2535 142.662 97.2535Z" fill="#FFC261"/>
<path d="M142.662 97.2535L143.957 114.123L166.619 134.021L167.266 133.228C168.561 127.605 170.144 122.342 172.086 117.44C169.424 110.591 163.022 100.353 147.914 92.207C144.532 95.307 142.662 97.2535 142.662 97.2535Z" fill="#FCAF3F"/>
<path d="M124.82 95.2349L119.281 102.588L114.604 108.716L84.7483 113.186V113.042C84.8202 112.898 84.8922 112.681 84.8922 112.537C86.7627 107.13 88.1296 101.795 89.1368 96.5326C89.1368 96.3884 89.2087 96.3163 89.2087 96.1721C95.1799 91.9186 105.971 86.8 123.022 88.1698C123.022 88.1698 123.022 88.1698 123.094 88.1698C123.381 89.2512 123.669 90.2605 123.813 91.1256C123.885 91.2698 123.885 91.414 123.885 91.5581C124.317 93.4326 124.604 94.6581 124.676 95.0907C124.82 95.1628 124.82 95.2349 124.82 95.2349Z" fill="#FCAF3F"/>
<path d="M134.964 195.66H107.698C83.3094 195.66 64.7482 173.744 68.777 149.665L69.9281 142.816L71.7266 131.93C75.3957 109.653 94.6763 93.2884 117.194 93.2884H125.54C148.13 93.2884 167.338 109.653 171.007 131.93L173.957 149.665C174.245 151.251 174.388 152.765 174.46 154.351C175.468 176.556 157.77 195.66 134.964 195.66Z" fill="#FFC261"/>
<path d="M174.389 154.351C168.489 161.056 160.144 168.193 151.151 168.193C137.986 168.193 136.979 160.047 134.101 157.379C131.799 155.216 129.497 154.856 126.331 154.856C123.166 154.856 120.935 155.216 118.561 157.379C115.684 160.047 114.676 168.193 101.511 168.193C85.3958 168.193 71.2231 145.195 69.7843 142.888L68.6332 149.737C64.6764 173.816 83.1656 195.733 107.554 195.733H126.259H134.82C157.77 195.66 175.468 176.556 174.389 154.351Z" fill="#FFF0F5"/>
<path d="M101.583 163.651C109.331 163.651 115.612 157.357 115.612 149.593C115.612 141.829 109.331 135.535 101.583 135.535C93.8349 135.535 87.554 141.829 87.554 149.593C87.554 157.357 93.8349 163.651 101.583 163.651Z" fill="#FFF0FA"/>
<path d="M103.669 162.426C109.47 162.426 114.173 157.713 114.173 151.9C114.173 146.087 109.47 141.374 103.669 141.374C97.8682 141.374 93.1655 146.087 93.1655 151.9C93.1655 157.713 97.8682 162.426 103.669 162.426Z" fill="#7F4244"/>
<path d="M96.259 148.44C97.7291 148.44 98.9209 147.245 98.9209 145.772C98.9209 144.299 97.7291 143.105 96.259 143.105C94.7889 143.105 93.5972 144.299 93.5972 145.772C93.5972 147.245 94.7889 148.44 96.259 148.44Z" fill="#FFF0FA"/>
<path d="M147.986 163.219C155.733 163.219 162.014 156.925 162.014 149.16C162.014 141.396 155.733 135.102 147.986 135.102C140.238 135.102 133.957 141.396 133.957 149.16C133.957 156.925 140.238 163.219 147.986 163.219Z" fill="#FFF0FA"/>
<path d="M150 161.921C155.801 161.921 160.504 157.208 160.504 151.395C160.504 145.582 155.801 140.87 150 140.87C144.199 140.87 139.496 145.582 139.496 151.395C139.496 157.208 144.199 161.921 150 161.921Z" fill="#7F4244"/>
<path d="M142.662 147.935C144.132 147.935 145.324 146.741 145.324 145.267C145.324 143.794 144.132 142.6 142.662 142.6C141.192 142.6 140 143.794 140 145.267C140 146.741 141.192 147.935 142.662 147.935Z" fill="#FFF0FA"/>
<path d="M126.331 164.66C123.885 164.66 121.871 162.642 121.871 160.191C121.871 158.605 123.166 157.379 124.676 157.379H127.914C129.497 157.379 130.72 158.677 130.72 160.191C130.72 162.642 128.777 164.66 126.331 164.66Z" fill="#E59896" stroke="#7F4244" stroke-width="1.9053" stroke-miterlimit="10"/>
<path d="M125.683 165.381C125.683 167.256 125.683 169.13 125.683 171.005C125.683 171.942 127.122 171.942 127.122 171.005C127.122 169.13 127.122 167.256 127.122 165.381C127.122 164.444 125.683 164.444 125.683 165.381Z" fill="#7F4244"/>
<path d="M121.439 169.635C122.518 171.293 129.281 174.465 133.597 167.184" stroke="#7F4244" stroke-width="2.0169" stroke-miterlimit="10" stroke-linecap="round"/>
<path d="M114.82 219.956V304.953C114.82 307.693 112.59 310 109.784 310C107.05 310 104.748 307.765 104.748 304.953V219.956H114.82Z" fill="#FFC261"/>
<path d="M133.597 283.902C133.597 283.902 135.54 310 117.266 310H114.748V219.667C114.748 214.477 118.921 210.223 124.173 210.223C129.353 210.223 133.597 214.405 133.597 219.667V283.902Z" fill="#FFF0FA"/>
<path d="M138.633 310C141.367 310 143.669 307.765 143.669 304.953V224.93C143.669 222.191 141.439 219.884 138.633 219.884C135.899 219.884 133.597 222.119 133.597 224.93V304.953C133.597 307.693 135.827 310 138.633 310Z" fill="#FFC261"/>
<path d="M92.3022 310H56.9065V294.5H61.1511C74.3885 294.428 86.4748 300.484 92.3022 310Z" fill="#7F4244"/>
<path d="M57.0503 295.437H25.3236C24.5323 295.365 23.0934 294.933 23.0215 293.563C23.0215 293.274 23.1654 293.058 23.4531 293.058C23.7409 293.058 23.9567 293.202 23.9567 293.491C24.0287 294.428 25.3236 294.5 25.3956 294.5H57.1222C57.41 294.5 57.6258 294.716 57.6258 295.005C57.6258 295.293 57.338 295.437 57.0503 295.437Z" fill="#7F4244"/>
<path d="M94.6763 124.577C94.6763 124.577 101.439 119.242 109.209 123.351" stroke="#FFF0F5" stroke-width="6.0508" stroke-miterlimit="10" stroke-linecap="round"/>
<path d="M155.036 124.577C155.036 124.577 148.273 119.242 140.504 123.351" stroke="#FFF0F5" stroke-width="6.0508" stroke-miterlimit="10" stroke-linecap="round"/>
</g>
<defs>
<clipPath id="clip0_37_856">
<rect width="280" height="310" fill="white"/>
</clipPath>
</defs>
</svg>
