<svg width="332" height="375" viewBox="0 0 332 375" fill="none" xmlns="http://www.w3.org/2000/svg">
<path d="M172.637 246.506C172.637 246.506 133.036 258.335 133.11 290.368" stroke="#FFC359" stroke-width="19.3111" stroke-miterlimit="10" stroke-linecap="round"/>
<path d="M215.69 341.65C211.209 348.042 204.156 349.805 199.674 355.242C196.588 358.989 194.605 364.499 195.486 374.344C195.486 374.344 176.237 362.075 186.964 346.279C189.388 342.752 193.356 339.005 199.38 335.185C205.478 331.364 202.613 328.352 199.013 326.515C197.396 325.633 195.56 325.046 194.458 324.678C193.723 324.458 193.209 324.311 193.209 324.311L193.429 323.944L201.07 311.38C201.07 311.38 202.613 311.674 204.743 312.482C212.458 315.274 228.621 323.356 215.69 341.65Z" fill="#FFB339"/>
<path d="M198.939 326.589C197.323 325.707 195.486 325.119 194.384 324.752L193.355 324.091L200.996 311.527C200.996 311.527 202.539 311.821 204.67 312.629C206.653 318.727 201.07 324.605 198.939 326.589Z" fill="#FF860C"/>
<path d="M136.049 346.719C129.363 343.34 126.718 335.258 130.024 328.572L141.779 305.209C145.159 298.523 153.241 295.878 159.926 299.184C166.612 302.564 169.257 310.646 165.951 317.331L154.196 340.695C150.816 347.381 142.734 350.026 136.049 346.719Z" fill="#FF860C"/>
<path d="M205.331 273.396L190.931 303.225L189.608 305.943C189.608 305.943 163.894 330.336 159.706 325.487C155.518 320.637 156.547 308.074 156.547 308.074C156.547 308.074 156.62 306.237 156.694 303.299C157.061 293.307 158.016 270.825 159.706 267.151C161.91 262.449 173.077 239.086 173.077 235.853C173.077 232.62 173.077 227.551 173.077 227.551L201.878 229.461V239.673L205.331 273.396Z" fill="#FFC359"/>
<path d="M196.735 260.098C196.735 261.567 196.514 263.11 196 264.58L186.008 294.629H155.739L168.669 255.543C171.167 247.975 179.322 243.935 186.816 246.433C192.841 248.416 196.735 254.074 196.735 260.098Z" fill="#FFF0F5"/>
<path d="M190.931 303.225L189.608 305.943C189.608 305.943 163.894 330.336 159.706 325.487C155.518 320.638 156.547 308.074 156.547 308.074C156.547 308.074 156.62 306.237 156.694 303.299H190.931V303.225Z" fill="#FFF0F5"/>
<path d="M157.796 339.446C153.02 333.715 153.902 325.193 159.633 320.417L179.837 303.813C185.568 299.037 194.09 299.919 198.866 305.65C203.641 311.38 202.76 319.903 197.029 324.678L176.825 341.283C171.094 346.058 162.571 345.177 157.796 339.446Z" fill="#FFB339"/>
<path d="M234.131 286.4C234.131 287.796 234.058 289.119 233.837 290.368C233.029 295.584 230.531 300.286 226.931 303.813C222.449 308.294 216.278 311.013 209.445 311.013H96.2277C83.9582 311.013 73.7459 302.05 71.8356 290.294C71.6152 288.972 71.5417 287.649 71.5417 286.327C71.5417 279.494 74.3336 273.323 78.7418 268.841C83.2235 264.359 89.395 261.641 96.2277 261.641H209.445C223.111 261.714 234.131 272.735 234.131 286.4Z" fill="#4F9EEE"/>
<path d="M233.837 290.441C233.029 295.658 230.531 300.36 226.931 303.886C222.45 308.368 216.278 311.086 209.445 311.086H96.2278C83.9583 311.086 73.7459 302.123 71.8357 290.368H233.837V290.441Z" fill="#00549B"/>
<path d="M208.27 261.714C208.27 261.714 228.841 289.486 210.327 290.368C191.886 291.249 217.674 301.682 217.674 301.682L232.662 298.449L231.56 270.972L215.176 261.641H208.27V261.714Z" fill="#00549B"/>
<path d="M240.009 291.617C239.935 292.939 239.788 294.262 239.641 295.658C239.127 299.184 236.115 301.756 232.662 301.756C232.294 301.756 232.001 301.756 231.633 301.682C227.739 301.168 225.021 297.568 225.609 293.674C225.756 292.866 225.829 292.058 225.829 291.25C227.298 266.637 196.882 252.31 196.514 252.163C192.988 250.547 191.372 246.286 193.061 242.759C194.678 239.233 198.866 237.616 202.466 239.233C204.082 240.041 241.772 257.674 240.009 291.617Z" fill="#FFC359"/>
<path d="M195.486 374.344C195.486 374.344 176.237 362.075 186.964 346.279L199.674 355.168C196.588 358.989 194.605 364.426 195.486 374.344Z" fill="#904042"/>
<path d="M126.056 372.434C123.852 372.214 122.31 370.303 122.456 368.099L123.558 356.124C123.779 353.92 125.689 352.377 127.893 352.524C130.097 352.744 131.64 354.654 131.493 356.858L130.391 368.834C130.097 371.038 128.187 372.654 126.056 372.434Z" fill="#904042"/>
<path d="M137.518 361.193C136.489 359.283 137.224 356.858 139.208 355.83L149.861 350.246C151.771 349.217 154.196 349.952 155.224 351.936C156.253 353.846 155.518 356.271 153.534 357.299L142.881 362.883C140.897 363.838 138.546 363.103 137.518 361.193Z" fill="#904042"/>
<path d="M48.619 304.768C48.619 304.768 46.121 289.486 62.0641 289.486C78.0071 289.486 71.8356 289.486 76.3173 289.486C87.0439 289.486 82.1949 304.768 96.8889 304.768C111.583 304.768 117.828 304.768 117.828 304.768" stroke="#00E0FF" stroke-width="8.4486" stroke-miterlimit="10" stroke-linecap="round"/>
<path d="M129.289 304.768H148.979" stroke="#00E0FF" stroke-width="8.4486" stroke-miterlimit="10" stroke-linecap="round"/>
<path d="M220.539 299.772V292.131C220.539 287.356 216.645 283.462 211.87 283.462C207.094 283.462 203.2 287.356 203.2 292.131C203.2 292.131 204.155 310.131 188.873 304.768C181.747 302.27 178.514 302.637 174.767 305.797" stroke="#00E0FF" stroke-width="8.4486" stroke-miterlimit="10" stroke-linecap="round"/>
<path d="M71.9089 329.307H85.7213" stroke="#00E0FF" stroke-width="8.4486" stroke-miterlimit="10" stroke-linecap="round"/>
<path d="M227.519 305.723H241.405" stroke="#00E0FF" stroke-width="8.4486" stroke-miterlimit="10" stroke-linecap="round"/>
<path d="M98.5789 332.393C100.283 332.393 101.665 331.011 101.665 329.307C101.665 327.603 100.283 326.221 98.5789 326.221C96.8747 326.221 95.4932 327.603 95.4932 329.307C95.4932 331.011 96.8747 332.393 98.5789 332.393Z" fill="#00E0FF"/>
<path d="M183.951 112.129L214.515 153.64L229.429 173.918C229.429 173.918 260.433 194.269 305.471 142.913C350.508 91.5575 336.255 -9.68443 270.94 0.748342C262.05 2.14427 254.041 5.23002 246.694 9.49129C200.114 36.6753 183.951 112.129 183.951 112.129Z" fill="#FFF0FA"/>
<path d="M183.951 112.129L190.563 121.093L195.853 128.219L214.588 153.64C232.809 167.011 245.739 170.171 233.323 138.578C232.662 136.815 232 135.125 231.413 133.362C231.339 133.142 231.266 132.995 231.192 132.774C228.988 126.382 227.298 120.064 226.123 113.892C226.123 113.745 226.049 113.599 226.049 113.452C214.735 54.4551 246.327 10.0056 246.768 9.41785C209.592 31.0916 191.812 83.4023 186.082 103.754C186.082 103.827 186.008 103.9 186.008 103.974C185.641 105.296 185.347 106.472 185.053 107.501C184.98 107.647 184.98 107.868 184.906 108.015C184.245 110.66 183.951 112.129 183.951 112.129Z" fill="#FFC261"/>
<path d="M162.865 114.848L158.824 166.277L156.841 191.403C156.841 191.403 141.265 225.053 75.8765 205.289C10.488 185.452 -30.9492 92.0718 30.0311 66.3572C38.3332 62.9041 46.7823 61.2143 55.2313 60.9939C109.232 59.3041 162.865 114.848 162.865 114.848Z" fill="#FFF0FA"/>
<path d="M162.865 114.848L161.322 134.831L158.898 166.277C150.522 187.289 141.191 196.767 135.02 163.411C134.652 161.354 134.212 159.37 133.771 157.387C132.228 150.774 130.318 144.529 128.114 138.725C106.513 82.3002 55.9659 61.2143 55.3047 60.9204C98.2847 59.6714 141.044 94.6432 156.694 108.896C160.661 112.57 162.865 114.848 162.865 114.848Z" fill="#FFC261"/>
<path d="M162.865 114.848L161.322 134.831L134.506 158.342L133.771 157.387C132.228 150.774 130.318 144.53 128.114 138.725C131.273 130.644 138.767 118.595 156.767 108.97C160.661 112.57 162.865 114.848 162.865 114.848Z" fill="#FCAF3F"/>
<path d="M183.951 112.423L190.563 121.092L196.073 128.366L231.339 133.582V133.362C231.266 133.142 231.192 132.995 231.119 132.774C228.915 126.382 227.225 120.064 226.049 113.892C226.049 113.745 225.976 113.599 225.976 113.452C218.923 108.382 206.139 102.358 185.935 103.974H185.861C185.494 105.296 185.2 106.472 184.979 107.501C184.906 107.647 184.906 107.868 184.833 108.015C184.318 110.219 184.024 111.615 183.877 112.129C183.951 112.35 183.951 112.423 183.951 112.423Z" fill="#FCAF3F"/>
<path d="M171.902 231.077H204.155C232.956 231.077 254.923 205.216 250.221 176.783L248.899 168.701L246.768 155.844C242.433 129.542 219.658 110.219 192.988 110.219H183.143C156.473 110.219 133.698 129.542 129.289 155.844L125.836 176.783C125.542 178.62 125.322 180.456 125.248 182.293C124.073 208.449 144.939 231.077 171.902 231.077Z" fill="#FFC261"/>
<path d="M125.248 182.293C132.228 190.228 142.147 198.604 152.726 198.604C168.302 198.604 169.478 188.979 172.857 185.82C175.576 183.248 178.294 182.881 182.041 182.881C185.788 182.881 188.433 183.248 191.225 185.82C194.604 188.979 195.853 198.604 211.356 198.604C230.384 198.604 247.209 171.493 248.899 168.701L250.221 176.783C254.923 205.216 232.956 231.077 204.155 231.077H182.041H171.902C144.939 231.077 124.073 208.449 125.248 182.293Z" fill="#FFF0F5"/>
<path d="M211.429 193.167C220.559 193.167 227.96 185.766 227.96 176.636C227.96 167.506 220.559 160.105 211.429 160.105C202.299 160.105 194.898 167.506 194.898 176.636C194.898 185.766 202.299 193.167 211.429 193.167Z" fill="#FFF0FA"/>
<path d="M209.004 191.844C215.902 191.844 221.494 186.252 221.494 179.354C221.494 172.456 215.902 166.864 209.004 166.864C202.106 166.864 196.514 172.456 196.514 179.354C196.514 186.252 202.106 191.844 209.004 191.844Z" fill="#7F4244"/>
<path d="M217.674 175.24C219.378 175.24 220.76 173.858 220.76 172.154C220.76 170.45 219.378 169.068 217.674 169.068C215.97 169.068 214.588 170.45 214.588 172.154C214.588 173.858 215.97 175.24 217.674 175.24Z" fill="#FFF0FA"/>
<path d="M156.547 192.652C165.677 192.652 173.078 185.251 173.078 176.122C173.078 166.992 165.677 159.591 156.547 159.591C147.417 159.591 140.016 166.992 140.016 176.122C140.016 185.251 147.417 192.652 156.547 192.652Z" fill="#FFF0FA"/>
<path d="M154.122 191.257C161.02 191.257 166.612 185.665 166.612 178.767C166.612 171.869 161.02 166.277 154.122 166.277C147.224 166.277 141.632 171.869 141.632 178.767C141.632 185.665 147.224 191.257 154.122 191.257Z" fill="#7F4244"/>
<path d="M162.865 174.652C164.569 174.652 165.951 173.271 165.951 171.567C165.951 169.862 164.569 168.481 162.865 168.481C161.161 168.481 159.779 169.862 159.779 171.567C159.779 173.271 161.161 174.652 162.865 174.652Z" fill="#FFF0FA"/>
<path d="M181.674 194.416H182.702C185.347 194.416 187.478 192.285 187.478 189.64C187.478 187.51 185.788 185.82 183.657 185.82H180.792C178.661 185.82 176.972 187.51 176.972 189.64C176.898 192.285 179.029 194.416 181.674 194.416Z" fill="#E59896" stroke="#7F4244" stroke-width="2.2075" stroke-miterlimit="10"/>
<path d="M181.233 195.224C181.233 197.428 181.233 199.706 181.233 201.91C181.233 203.012 182.922 203.012 182.922 201.91C182.922 199.706 182.922 197.428 182.922 195.224C182.922 194.122 181.233 194.122 181.233 195.224Z" fill="#7F4244"/>
<path d="M187.918 200.293C186.596 202.277 178.588 206.024 173.518 197.428" stroke="#7F4244" stroke-width="2.3368" stroke-miterlimit="10" stroke-linecap="round"/>
<path d="M240.009 291.617C239.935 292.939 239.788 294.262 239.642 295.658C239.127 299.184 236.115 301.756 232.662 301.756C232.295 301.756 232.001 301.756 231.633 301.682C227.739 301.168 225.021 297.568 225.609 293.674C225.756 292.866 225.829 292.058 225.829 291.249L240.009 291.617Z" fill="#904042"/>
<path d="M219.584 146.366C219.584 146.366 211.723 140.195 202.76 144.897" stroke="#FFF0F5" stroke-width="6.8476" stroke-miterlimit="10" stroke-linecap="round"/>
<path d="M149.787 146.366C149.787 146.366 157.649 140.195 166.612 144.897" stroke="#FFF0F5" stroke-width="6.8476" stroke-miterlimit="10" stroke-linecap="round"/>
</svg>
