<svg width="58" height="53" viewBox="0 0 58 53" fill="none" xmlns="http://www.w3.org/2000/svg">
<path d="M38.6817 0H19.3069C15.8665 0 12.6977 1.81073 10.9776 4.79843L1.29015 21.5477C-0.430048 24.5354 -0.430048 28.1568 1.29015 31.1446L10.9776 47.8938C12.6977 50.8815 15.8665 52.6922 19.3069 52.6922H38.6817C42.1221 52.6922 45.2909 50.8815 47.0111 47.8938L56.6985 31.1446C58.4187 28.1568 58.4187 24.5354 56.6985 21.5477L47.0111 4.79843C45.2909 1.81073 42.1221 0 38.6817 0Z" fill="#FF9D17"/>
<path d="M48.9124 18.1978C47.9165 18.1978 47.1016 17.383 47.1016 16.3871C47.1016 13.852 45.1098 11.8602 42.5748 11.8602C40.0398 11.8602 38.048 13.852 38.048 16.3871C38.048 17.383 37.2331 18.1978 36.2372 18.1978C35.2413 18.1978 34.4265 17.383 34.4265 16.3871C34.4265 11.8602 38.048 8.23877 42.5748 8.23877C47.1016 8.23877 50.7231 11.8602 50.7231 16.3871C50.7231 17.383 49.9083 18.1978 48.9124 18.1978Z" fill="black"/>
<path d="M21.7512 18.1978C20.7553 18.1978 19.9405 17.383 19.9405 16.3871C19.9405 13.852 17.9487 11.8602 15.4137 11.8602C12.8786 11.8602 10.8868 13.852 10.8868 16.3871C10.8868 17.383 10.072 18.1978 9.07611 18.1978C8.08021 18.1978 7.26538 17.383 7.26538 16.3871C7.26538 11.8602 10.8868 8.23877 15.4137 8.23877C19.9405 8.23877 23.562 11.8602 23.562 16.3871C23.562 17.383 22.7471 18.1978 21.7512 18.1978Z" fill="black"/>
<path d="M28.9942 32.231C17.9488 32.231 14.5084 24.7164 14.4178 24.3543C14.0557 23.4489 14.4178 22.3625 15.3232 22.0003C16.2286 21.6382 17.315 22.0003 17.6771 22.9057C17.7677 23.0868 20.3932 28.6095 28.9942 28.6095C37.5952 28.6095 40.1302 23.0868 40.3113 22.9057C40.764 22.0003 41.7599 21.5477 42.6652 22.0003C43.5706 22.3625 44.0233 23.4489 43.5706 24.3543C43.48 24.7164 40.0397 32.231 28.9942 32.231Z" fill="black"/>
</svg>
