<svg width="14" height="25" viewBox="0 0 14 25" fill="none" xmlns="http://www.w3.org/2000/svg">
<path d="M13.0073 0.00520167L9.76535 0C6.12314 0 3.76939 2.41487 3.76939 6.15253V8.98926H0.509764C0.228093 8.98926 0 9.21762 0 9.49929V13.6094C0 13.8911 0.228354 14.1191 0.509764 14.1191H3.76939V24.4902C3.76939 24.7719 3.99748 25 4.27915 25H8.53204C8.81371 25 9.0418 24.7716 9.0418 24.4902V14.1191H12.8531C13.1347 14.1191 13.3628 13.8911 13.3628 13.6094L13.3644 9.49929C13.3644 9.36404 13.3106 9.23452 13.2151 9.13881C13.1196 9.0431 12.9896 8.98926 12.8544 8.98926H9.0418V6.58453C9.0418 5.42872 9.31723 4.84197 10.8229 4.84197L13.0068 4.84119C13.2882 4.84119 13.5163 4.61284 13.5163 4.33143V0.514965C13.5163 0.233815 13.2884 0.00572184 13.0073 0.00520167Z" fill="#3E53C6"/>
</svg>
