<svg width="28" height="28" viewBox="0 0 28 28" fill="none" xmlns="http://www.w3.org/2000/svg">
<path fill-rule="evenodd" clip-rule="evenodd" d="M6.03423 14C6.03423 13.0906 6.18517 12.2187 6.45489 11.401L1.73645 7.79797C0.816828 9.665 0.298828 11.7689 0.298828 14C0.298828 16.2293 0.816391 18.3317 1.73448 20.1976L6.4503 16.5876C6.1832 15.7736 6.03423 14.9049 6.03423 14Z" fill="#FBBC05"/>
<path fill-rule="evenodd" clip-rule="evenodd" d="M14.3186 5.72731C16.2941 5.72731 18.0785 6.42731 19.4805 7.57269L23.5588 3.5C21.0736 1.33634 17.8873 0 14.3186 0C8.77811 0 4.01636 3.16837 1.73633 7.798L6.45455 11.401C7.54173 8.10097 10.6408 5.72731 14.3186 5.72731Z" fill="#EA4335"/>
<path fill-rule="evenodd" clip-rule="evenodd" d="M14.3186 22.2726C10.641 22.2726 7.54195 19.8989 6.45477 16.5989L1.73633 20.2013C4.01636 24.8315 8.77811 27.9999 14.3186 27.9999C17.7381 27.9999 21.003 26.7856 23.4532 24.5106L18.9745 21.0483C17.7108 21.8443 16.1194 22.2726 14.3186 22.2726Z" fill="#34A853"/>
<path fill-rule="evenodd" clip-rule="evenodd" d="M27.7008 14C27.7008 13.1727 27.5733 12.2817 27.3821 11.4546H14.3184V16.8636H21.8381C21.4621 18.7079 20.4388 20.1256 18.9742 21.0483L23.4529 24.5107C26.0267 22.1219 27.7008 18.5633 27.7008 14Z" fill="#4285F4"/>
</svg>
