<svg width="80" height="80" viewBox="0 0 80 80" fill="none" xmlns="http://www.w3.org/2000/svg">
<path d="M39.9757 15.9903C39.9757 12.8277 39.0379 9.73617 37.2809 7.10657C35.5238 4.47698 33.0265 2.42746 30.1047 1.2172C27.1828 0.0069283 23.9677 -0.309733 20.8659 0.307256C17.7641 0.924246 14.9149 2.44717 12.6786 4.68346C10.4423 6.91974 8.91936 9.76894 8.30237 12.8708C7.68538 15.9726 8.00205 19.1877 9.21231 22.1095C10.4226 25.0314 12.4721 27.5287 15.1017 29.2858C17.7313 31.0428 20.8228 31.9806 23.9854 31.9806C28.2263 31.9806 32.2935 30.2959 35.2923 27.2972C38.291 24.2984 39.9757 20.2312 39.9757 15.9903ZM15.9903 15.9903C15.9903 14.409 16.4592 12.8632 17.3377 11.5484C18.2162 10.2336 19.4649 9.20889 20.9258 8.60375C22.3867 7.99862 23.9943 7.84029 25.5452 8.14878C27.0961 8.45728 28.5207 9.21874 29.6389 10.3369C30.757 11.455 31.5185 12.8796 31.827 14.4305C32.1355 15.9814 31.9771 17.589 31.372 19.0499C30.7669 20.5108 29.7421 21.7595 28.4273 22.638C27.1125 23.5166 25.5667 23.9855 23.9854 23.9855C21.865 23.9855 19.8314 23.1431 18.332 21.6437C16.8326 20.1444 15.9903 18.1108 15.9903 15.9903Z" fill="#E91427"/>
<path d="M55.9661 31.9805C52.5083 31.9861 49.0927 32.7391 45.9532 34.1881C42.8137 35.6371 40.0246 37.7478 37.7771 40.3754C34.1867 37.8521 29.9728 36.3621 25.5943 36.0678C21.2157 35.7734 16.8404 36.6859 12.9445 38.706C9.04867 40.7261 5.78169 43.7762 3.49928 47.5244C1.21688 51.2726 0.00652105 55.5751 0 59.9636V71.9563H38.1369C40.8055 74.9399 44.1785 77.2082 47.9483 78.5544C51.7182 79.9006 55.765 80.2818 59.7199 79.6635C63.6748 79.0451 67.4121 77.4467 70.591 75.014C73.77 72.5813 76.2896 69.3916 77.9201 65.7358C79.5506 62.0799 80.2402 58.0741 79.926 54.0835C79.6118 50.0929 78.3039 46.2443 76.1214 42.8887C73.9389 39.533 70.9513 36.7769 67.4308 34.8716C63.9104 32.9663 59.969 31.9724 55.9661 31.9805ZM33.3798 63.9611H7.99515V59.9636C7.99515 55.7227 9.67984 51.6555 12.6786 48.6567C15.6774 45.6579 19.7446 43.9732 23.9855 43.9732C27.4727 43.9991 30.856 45.1643 33.6196 47.2912C31.513 52.6334 31.4277 58.5606 33.3798 63.9611ZM66.7995 61.1229L61.1629 66.7594L55.9661 61.6026L50.8092 66.7594L45.1726 61.1229L50.3295 55.966L45.1726 50.8091L50.8092 45.1725L55.9661 50.3294L61.1229 45.1725L66.7595 50.8091L61.6026 55.966L66.7995 61.1229Z" fill="#E91427"/>
</svg>
