<svg width="90" height="90" viewBox="0 0 90 90" fill="none" xmlns="http://www.w3.org/2000/svg">
<path d="M45 0C20.1445 0 0 20.1445 0 45C0 69.8555 20.1445 90 45 90C69.8555 90 90 69.8555 90 45C90 20.1445 69.8555 0 45 0ZM65.3555 37.2305L42.8555 59.7305C41.8887 60.6973 40.6406 61.1719 39.375 61.1719C38.1094 61.1719 36.8543 60.6939 35.8928 59.7326L24.6428 48.4826C22.725 46.5595 22.725 43.4394 24.6428 41.5164C26.5658 39.5933 29.6859 39.5933 31.609 41.5164L39.375 49.2891L58.3945 30.2695C60.3176 28.3465 63.4377 28.3465 65.3607 30.2695C67.2715 32.1855 67.2715 35.3145 65.3555 37.2305Z" fill="#2BC995"/>
</svg>
