<svg width="178" height="175" viewBox="0 0 178 175" fill="none" xmlns="http://www.w3.org/2000/svg">
<path d="M124.207 172.672L124.207 172.671L77.9683 134.518L77.6912 134.29H77.3318H16.6567C8.0996 134.29 1 127.056 1 118.191V16.813C1 8.01054 8.07942 1 16.6567 1H161.291C169.966 1 177 8.01094 177 16.813V118.191C177 127.056 169.946 134.29 161.291 134.29H134.868H133.868V135.29V168.022C133.868 170.346 132.564 172.445 130.491 173.428C129.677 173.814 128.844 174 127.987 174C126.62 174 125.283 173.56 124.207 172.672Z" stroke="#E4E8EF" stroke-width="2"/>
</svg>
