<svg width="167" height="48" viewBox="0 0 167 48" fill="none" xmlns="http://www.w3.org/2000/svg">
<g filter="url(#filter0_d_52_174)">
<rect x="4" width="158.545" height="40" rx="4" fill="white"/>
<path d="M19.2224 29.5535C17.6969 29.5535 16.1934 29.3103 14.7121 28.8239C13.2529 28.3154 12.0148 27.5858 10.9978 26.6351L13.1534 22.755C14.2368 23.4625 15.2759 24.0152 16.2708 24.4132C17.2878 24.8111 18.2054 25.0101 19.0234 25.0101C19.4877 25.0101 19.8304 24.9549 20.0515 24.8443C20.2726 24.7117 20.3831 24.5016 20.3831 24.2142C20.3831 24.0152 20.3057 23.8494 20.151 23.7167C19.9962 23.5841 19.7419 23.4514 19.3882 23.3188C19.0566 23.1861 18.6254 23.0424 18.0948 22.8877C16.7241 22.4013 15.5744 21.948 14.6458 21.5279C13.7393 21.1079 13.0539 20.5994 12.5897 20.0024C12.1475 19.3834 11.9264 18.5653 11.9264 17.5483C11.9264 16.3544 12.2249 15.3042 12.8218 14.3978C13.4187 13.4692 14.2699 12.7396 15.3754 12.209C16.503 11.6783 17.8516 11.413 19.4214 11.413C20.5932 11.413 21.7649 11.601 22.9367 11.9768C24.1306 12.3306 25.2803 12.9828 26.3857 13.9335L23.998 17.7805C22.8925 17.0951 21.9529 16.6087 21.179 16.3213C20.4273 16.0338 19.753 15.8901 19.1561 15.8901C18.8686 15.8901 18.6144 15.9233 18.3933 15.9896C18.1943 16.0559 18.0395 16.1554 17.929 16.2881C17.8185 16.4207 17.7632 16.5976 17.7632 16.8187C17.7632 17.0398 17.8406 17.2277 17.9953 17.3825C18.1501 17.5151 18.3933 17.6478 18.7249 17.7805C19.0566 17.891 19.4766 18.0237 19.9852 18.1784C21.4886 18.6206 22.7156 19.0738 23.6663 19.5381C24.617 19.9803 25.3134 20.522 25.7556 21.1631C26.2199 21.8043 26.4521 22.6445 26.4521 23.6836C26.4521 25.5186 25.7998 26.9557 24.4954 27.9949C23.2131 29.034 21.4554 29.5535 19.2224 29.5535Z" fill="#FF9D17"/>
<path d="M50.1462 30.9796C50.6547 31.1565 51.119 31.2891 51.5391 31.3775C51.9812 31.4881 52.3792 31.5434 52.733 31.5434C53.1972 31.5434 53.5841 31.4549 53.8937 31.2781C54.2032 31.1233 54.4464 30.869 54.6233 30.5153C54.8001 30.1615 54.9107 29.7304 54.9549 29.2219L48.6207 11.7778H55.0876L58.4039 22.755L61.0902 11.7778H66.9601L61.057 31.3112C60.7254 32.4388 60.1837 33.4226 59.432 34.2628C58.6803 35.125 57.7849 35.7883 56.7458 36.2526C55.7066 36.739 54.5901 36.9822 53.3962 36.9822C52.8435 36.9822 52.2908 36.9269 51.738 36.8164C51.2074 36.7279 50.6768 36.5732 50.1462 36.3521V30.9796Z" fill="#FF9D17"/>
<path d="M68.5416 5.01245H74.8427V22.2907C74.8427 22.9319 74.9754 23.4293 75.2407 23.7831C75.5281 24.1147 75.9371 24.2805 76.4678 24.2805C76.7331 24.2805 77.0205 24.2363 77.33 24.1479C77.6395 24.0594 77.927 23.9378 78.1923 23.7831L78.9882 28.426C78.2365 28.7797 77.3853 29.0561 76.4346 29.2551C75.506 29.4541 74.6216 29.5535 73.7815 29.5535C72.1012 29.5535 70.8078 29.1224 69.9014 28.2602C68.9949 27.3758 68.5416 26.1266 68.5416 24.5127V5.01245Z" fill="#FF9D17"/>
<path d="M89.0523 29.5535C87.5268 29.5535 86.1671 29.3214 84.9732 28.8571C83.7793 28.3707 82.7733 27.7185 81.9553 26.9005C81.1594 26.0824 80.5514 25.1428 80.1313 24.0815C79.7112 23.0203 79.5012 21.9038 79.5012 20.732C79.5012 19.0517 79.866 17.5151 80.5956 16.1223C81.3252 14.7073 82.3975 13.5797 83.8125 12.7396C85.2274 11.8773 86.9741 11.4462 89.0523 11.4462C91.1306 11.4462 92.8772 11.8663 94.2922 12.7064C95.7071 13.5466 96.7794 14.652 97.509 16.0228C98.2386 17.3935 98.6034 18.8859 98.6034 20.4999C98.6034 20.8315 98.5813 21.1742 98.5371 21.5279C98.515 21.8596 98.4818 22.1581 98.4376 22.4234H86.2002C86.2445 23.0424 86.4103 23.5509 86.6977 23.9489C87.0072 24.3247 87.3831 24.6011 87.8253 24.778C88.2896 24.9549 88.7649 25.0433 89.2513 25.0433C89.9367 25.0433 90.5778 24.8885 91.1748 24.579C91.7938 24.2695 92.2029 23.8383 92.4018 23.2856L97.7412 24.8111C97.2769 25.7397 96.6247 26.5578 95.7845 27.2653C94.9665 27.9727 93.9937 28.5365 92.8661 28.9566C91.7386 29.3546 90.4673 29.5535 89.0523 29.5535ZM86.0676 18.6427H91.8381C91.7717 18.0679 91.6059 17.5815 91.3406 17.1835C91.0974 16.7855 90.7658 16.476 90.3457 16.2549C89.9477 16.0338 89.4834 15.9233 88.9528 15.9233C88.4222 15.9233 87.9469 16.0338 87.5268 16.2549C87.1288 16.476 86.7972 16.7855 86.5319 17.1835C86.2887 17.5815 86.1339 18.0679 86.0676 18.6427Z" fill="#FF9D17"/>
<path d="M113.56 29.5535C112.299 29.5535 111.205 29.3103 110.276 28.8239C109.348 28.3154 108.629 27.5858 108.121 26.6351V36.2858H101.82V11.7778H107.292V14.3978C107.911 13.4471 108.674 12.7175 109.58 12.209C110.509 11.7005 111.625 11.4462 112.93 11.4462C114.101 11.4462 115.174 11.6673 116.146 12.1095C117.119 12.5517 117.97 13.1818 118.7 13.9998C119.43 14.8178 119.993 15.7685 120.391 16.8519C120.789 17.9352 120.988 19.1291 120.988 20.4335C120.988 22.1802 120.668 23.7389 120.027 25.1096C119.385 26.4804 118.501 27.5637 117.374 28.3597C116.268 29.1556 114.997 29.5535 113.56 29.5535ZM111.371 24.2474C111.835 24.2474 112.255 24.1479 112.631 23.9489C113.029 23.7499 113.372 23.4735 113.659 23.1198C113.947 22.7661 114.168 22.357 114.322 21.8927C114.477 21.4285 114.555 20.931 114.555 20.4004C114.555 19.8477 114.466 19.3502 114.289 18.908C114.135 18.4658 113.902 18.09 113.593 17.7805C113.283 17.4488 112.919 17.1946 112.498 17.0177C112.078 16.8408 111.614 16.7524 111.106 16.7524C110.818 16.7524 110.531 16.7966 110.243 16.885C109.978 16.9514 109.724 17.0619 109.481 17.2167C109.237 17.3493 108.994 17.5262 108.751 17.7473C108.53 17.9684 108.32 18.2337 108.121 18.5432V21.5611C108.32 22.0696 108.585 22.5339 108.917 22.954C109.271 23.3519 109.657 23.6725 110.078 23.9157C110.498 24.1368 110.929 24.2474 111.371 24.2474Z" fill="#15387A"/>
<path d="M135.131 17.1503C133.915 17.1503 132.81 17.283 131.815 17.5483C130.82 17.8136 130.079 18.2558 129.593 18.8749V29.2219H123.292V11.7778H129.062V15.0942C129.681 13.9224 130.455 13.027 131.384 12.4079C132.312 11.7668 133.296 11.4462 134.335 11.4462C134.579 11.4462 134.744 11.4462 134.833 11.4462C134.943 11.4462 135.043 11.4573 135.131 11.4794V17.1503Z" fill="#15387A"/>
<path d="M145.678 29.5535C144.13 29.5535 142.759 29.3103 141.566 28.8239C140.372 28.3375 139.366 27.6743 138.548 26.8341C137.752 25.9719 137.144 24.9991 136.724 23.9157C136.326 22.8324 136.127 21.6938 136.127 20.4999C136.127 19.306 136.326 18.1674 136.724 17.084C137.144 15.9786 137.752 15.0058 138.548 14.1656C139.366 13.3255 140.372 12.6622 141.566 12.1758C142.759 11.6894 144.13 11.4462 145.678 11.4462C147.248 11.4462 148.618 11.6894 149.79 12.1758C150.984 12.6622 151.979 13.3255 152.775 14.1656C153.593 15.0058 154.201 15.9786 154.599 17.084C155.019 18.1674 155.229 19.306 155.229 20.4999C155.229 21.6938 155.019 22.8324 154.599 23.9157C154.201 24.9991 153.593 25.9719 152.775 26.8341C151.979 27.6743 150.984 28.3375 149.79 28.8239C148.618 29.3103 147.248 29.5535 145.678 29.5535ZM142.594 20.4999C142.594 21.2737 142.726 21.948 142.992 22.5229C143.257 23.0756 143.622 23.5067 144.086 23.8162C144.55 24.1037 145.081 24.2474 145.678 24.2474C146.275 24.2474 146.805 24.1037 147.27 23.8162C147.734 23.5067 148.099 23.0756 148.364 22.5229C148.629 21.948 148.762 21.2737 148.762 20.4999C148.762 19.7261 148.629 19.0628 148.364 18.5101C148.099 17.9352 147.734 17.5041 147.27 17.2167C146.805 16.9071 146.275 16.7524 145.678 16.7524C145.081 16.7524 144.55 16.9071 144.086 17.2167C143.622 17.5041 143.257 17.9352 142.992 18.5101C142.726 19.0628 142.594 19.7261 142.594 20.4999Z" fill="#15387A"/>
<path d="M38.4198 30.051H30.0973L31.3054 28.0375C31.5739 27.5006 31.5739 26.9637 31.1712 26.561C29.8288 24.9501 29.0234 22.8024 29.0234 20.6547C29.0234 15.4195 33.1847 11.2583 38.4198 11.2583C43.6549 11.2583 47.8162 15.4195 47.8162 20.6547C47.8162 25.8898 43.6549 30.051 38.4198 30.051Z" fill="#FF9D17"/>
</g>
<defs>
<filter id="filter0_d_52_174" x="0" y="0" width="166.545" height="48" filterUnits="userSpaceOnUse" color-interpolation-filters="sRGB">
<feFlood flood-opacity="0" result="BackgroundImageFix"/>
<feColorMatrix in="SourceAlpha" type="matrix" values="0 0 0 0 0 0 0 0 0 0 0 0 0 0 0 0 0 0 127 0" result="hardAlpha"/>
<feOffset dy="4"/>
<feGaussianBlur stdDeviation="2"/>
<feComposite in2="hardAlpha" operator="out"/>
<feColorMatrix type="matrix" values="0 0 0 0 0 0 0 0 0 0 0 0 0 0 0 0 0 0 0.25 0"/>
<feBlend mode="normal" in2="BackgroundImageFix" result="effect1_dropShadow_52_174"/>
<feBlend mode="normal" in="SourceGraphic" in2="effect1_dropShadow_52_174" result="shape"/>
</filter>
</defs>
</svg>
