<svg width="182" height="90" viewBox="0 0 182 90" fill="none" xmlns="http://www.w3.org/2000/svg">
<mask id="path-1-inside-1_2001_3345" fill="white">
<path fill-rule="evenodd" clip-rule="evenodd" d="M11.5012 0.000244141C9.29208 0.000244141 7.50121 1.7911 7.50121 4.00024V22.7385C7.50121 23.97 6.934 25.1328 5.96354 25.8908L1.53768 29.3479C-0.512559 30.9494 -0.512559 34.0511 1.53768 35.6525L5.96354 39.1097C6.934 39.8677 7.50121 41.0305 7.50121 42.262V86.0002C7.50121 88.2094 9.29207 90.0002 11.5012 90.0002H177.501C179.71 90.0002 181.501 88.2094 181.501 86.0002V4.00024C181.501 1.79111 179.71 0.000244141 177.501 0.000244141H11.5012Z"/>
</mask>
<path fill-rule="evenodd" clip-rule="evenodd" d="M11.5012 0.000244141C9.29208 0.000244141 7.50121 1.7911 7.50121 4.00024V22.7385C7.50121 23.97 6.934 25.1328 5.96354 25.8908L1.53768 29.3479C-0.512559 30.9494 -0.512559 34.0511 1.53768 35.6525L5.96354 39.1097C6.934 39.8677 7.50121 41.0305 7.50121 42.262V86.0002C7.50121 88.2094 9.29207 90.0002 11.5012 90.0002H177.501C179.71 90.0002 181.501 88.2094 181.501 86.0002V4.00024C181.501 1.79111 179.71 0.000244141 177.501 0.000244141H11.5012Z" fill="white"/>
<path d="M5.96354 39.1097L7.1947 37.5335L5.96354 39.1097ZM1.53768 35.6525L0.306515 37.2287L1.53768 35.6525ZM9.50121 4.00024C9.50121 2.89567 10.3966 2.00024 11.5012 2.00024V-1.99976C8.18751 -1.99976 5.50121 0.686535 5.50121 4.00024H9.50121ZM9.50121 22.7385V4.00024H5.50121V22.7385H9.50121ZM2.76884 30.9241L7.1947 27.467L4.73238 24.3147L0.306515 27.7718L2.76884 30.9241ZM7.1947 37.5335L2.76884 34.0764L0.306515 37.2287L4.73238 40.6858L7.1947 37.5335ZM9.50121 86.0002V42.262H5.50121V86.0002H9.50121ZM11.5012 88.0002C10.3966 88.0002 9.50121 87.1048 9.50121 86.0002H5.50121C5.50121 89.3139 8.1875 92.0002 11.5012 92.0002V88.0002ZM177.501 88.0002H11.5012V92.0002H177.501V88.0002ZM179.501 86.0002C179.501 87.1048 178.606 88.0002 177.501 88.0002V92.0002C180.815 92.0002 183.501 89.314 183.501 86.0002H179.501ZM179.501 4.00024V86.0002H183.501V4.00024H179.501ZM177.501 2.00024C178.606 2.00024 179.501 2.89568 179.501 4.00024H183.501C183.501 0.686535 180.815 -1.99976 177.501 -1.99976V2.00024ZM11.5012 2.00024H177.501V-1.99976H11.5012V2.00024ZM4.73238 40.6858C5.21761 41.0648 5.50121 41.6462 5.50121 42.262H9.50121C9.50121 40.4148 8.6504 38.6706 7.1947 37.5335L4.73238 40.6858ZM0.306515 27.7718C-2.76884 30.174 -2.76884 34.8265 0.306515 37.2287L2.76884 34.0764C1.74372 33.2757 1.74372 31.7248 2.76884 30.9241L0.306515 27.7718ZM5.50121 22.7385C5.50121 23.3542 5.21761 23.9356 4.73238 24.3147L7.1947 27.467C8.6504 26.3299 9.50121 24.5857 9.50121 22.7385H5.50121Z" fill="#E4E8EF" mask="url(#path-1-inside-1_2001_3345)"/>
</svg>
