<svg width="44" height="44" viewBox="0 0 44 44" fill="none" xmlns="http://www.w3.org/2000/svg">
<path fill-rule="evenodd" clip-rule="evenodd" d="M22 44C9.84974 44 0 34.1503 0 22C0 9.84974 9.84974 0 22 0C34.1503 0 44 9.84974 44 22C44 34.1503 34.1503 44 22 44ZM22 40C31.9411 40 40 31.9411 40 22C40 12.0589 31.9411 4 22 4C12.0589 4 4 12.0589 4 22C4 31.9411 12.0589 40 22 40ZM28.5859 14.5858L18.0002 25.1716L13.4144 20.5858L10.5859 23.4142L18.0002 30.8285L31.4144 17.4142L28.5859 14.5858Z" fill="#2BC995"/>
</svg>
